<?xml version="1.0" encoding="utf-8"?>
<!-- Generator: Adobe Illustrator 21.0.0, SVG Export Plug-In . SVG Version: 6.00 Build 0)  -->
<svg version="1.1" id="Layer_1" xmlns="http://www.w3.org/2000/svg" xmlns:xlink="http://www.w3.org/1999/xlink" x="0px" y="0px"
	 viewBox="0 0 512 512" style="enable-background:new 0 0 512 512;" xml:space="preserve">
<g>
	<path d="M256,0L36.6,128v256L256,512l219.4-128V128L256,0z M256,18.3l201.1,118.6v237.7L256,493.7L54.9,374.6V136.9L256,18.3z
		 M256,36.6L73.1,146.3v219.4L256,475.4l182.9-109.7V146.3L256,36.6z M256,90.5c90.6,0,164.6,73.9,164.6,165.5
		c0,91.2-73.9,165.4-164.6,165.4c-91,0-164.6-74.2-164.6-165.4C91.4,164.4,165,90.5,256,90.5z M256,109.7c-6.5,0-13.4,0.5-19.7,1.4
		l3.4,61.9l-20.3-58.8c-13,3.4-25.3,8.7-36.7,15.4l27.1,56.4l-41.4-46.9c-10.5,8.1-20.1,17.6-28.2,28.4l46.5,41.8l-56-27.3
		c-6.5,11.2-12,23.5-15.2,36.7l59,20.8l-62.4-3.8c-0.9,6.5-1.3,13.4-1.3,20.3s0.6,13.4,1.3,19.9l62.2-3.6l-58.8,20.8
		c3.3,13,8.5,25.3,15.2,36.9l56.1-27.3l-46.7,41.6c8.1,10.7,17.6,20.4,28.4,28.2l41.3-46.6l-27.1,56.4c11.2,6.7,23.5,11.9,36.7,15.5
		l20.4-59.3l-3.6,62.4c6.5,0.9,13.4,1.4,19.9,1.4c6.9,0,13.4-0.6,19.9-1.5l-3.6-63.1l20.8,59.9c13-3.6,25.3-8.7,36.7-15.5
		l-27.1-56.3l41.2,46.6c10.9-8.1,20.3-17.6,28.2-28.2l-46.5-41.6l56.1,27.1c6.5-11.4,11.9-23.7,15.2-37l-58.8-20.4l62,3.6
		c0.9-6.5,1.3-13,1.3-19.9s-0.4-13.7-1.3-20.3l-62.2,3.8l58.8-20.6c-3.4-13-8.3-25.7-15.2-36.9l-56,27.3l46.5-41.8
		c-8.1-10.7-17.5-20.3-28-28.4L302.5,186l26.9-56.2c-11.2-6.7-23.5-11.9-36.7-15.6l-20.4,59.1l3.6-62.2
		C269.4,110.1,262.9,109.7,256,109.7z"/>
</g>
</svg>
