<?xml version="1.0" encoding="UTF-8"?>
<svg width="1200pt" height="1200pt" version="1.1" viewBox="0 0 1200 1200" xmlns="http://www.w3.org/2000/svg">
 <g>
  <path d="m853.91 1200h184l-42.504-208.68h-141.49z"/>
  <path d="m975.54 318.93v278.43h-41.664v215.22h24.672v91.383l-21.828 72.777h-63.145v-657.81z"/>
  <path d="m346.08 1200h-183.98l42.504-208.68h141.48z"/>
  <path d="m224.46 318.93v278.43h41.664v215.22h-24.66v91.383l21.816 72.777h63.156v-657.81z"/>
  <path d="m349.09 262.63h501.8v41.426h-501.8z"/>
  <path d="m600 0c-138.56 0-250.91 112.33-250.91 250.91h501.8c-0.003907-138.57-112.32-250.91-250.9-250.91zm-5.7461 159.27c-27.383 0-49.586-22.199-49.586-49.586 0-27.383 22.199-49.586 49.586-49.586 27.383 0 49.586 22.199 49.586 49.586-0.003906 27.383-22.191 49.586-49.586 49.586zm127.5 62.328c-16.43 0-29.746-13.32-29.746-29.746 0-16.441 13.32-29.746 29.746-29.746 16.43 0 29.746 13.32 29.746 29.746 0.011719 16.426-13.309 29.746-29.746 29.746z"/>
  <path d="m742.56 898.87h-393.46l73.246 73.262h320.22l108.34-73.262z"/>
  <path d="m349.09 318.93v570.17h501.8l-0.003907-570.17zm250.91 544.1c-21.469 0-38.855-17.398-38.855-38.855s17.398-38.855 38.855-38.855 38.855 17.398 38.855 38.855-17.398 38.855-38.855 38.855zm47.496-153.66c0 20.375-18.613 36.91-41.566 36.91h-11.867c-22.957 0-41.555-16.535-41.555-36.91v-35.543c0-20.387 18.602-36.926 41.555-36.926h11.867c22.957 0 41.566 16.535 41.566 36.926zm0-120.37c0 20.375-18.613 36.91-41.566 36.91h-11.867c-22.957 0-41.555-16.535-41.555-36.91v-35.543c0-20.387 18.602-36.91 41.555-36.91h11.867c22.957 0 41.566 16.523 41.566 36.91zm98.723-120.42-42.539 8.1133-70.523-13.754v13.754h-129.72l-19.453-8.1133h-30.203v-27.551h30.203l19.453-8.1133h129.72v13.754l70.523-13.754 42.539 8.1133zm0-71.949h-30.215l-19.441 8.1016h-129.72v-13.738l-70.523 13.738-42.539-8.1016v-27.562l42.539-8.1133 70.523 13.754v-13.742h129.72l19.441 8.1133h30.215z"/>
 </g>
</svg>
