<?xml version="1.0" encoding="UTF-8"?>
<svg width="1200pt" height="1200pt" version="1.1" viewBox="0 0 1200 1200" xmlns="http://www.w3.org/2000/svg">
 <path d="m703.2 1054.8v40.801l-22.801 15.602v16.797s-2.3984 15.602-64.801 15.602c-62.398 0-64.797-15.602-64.797-15.602v-15.602l-22.801-16.797v-40.801l22.801-14.398v-28.801l-9.6016-6v-132h10.801v-189.6h-9.6016v-2.3984l7.1992-3.6016v-12l12-12-13.199-8.3984v-14.398l13.199-9.6016-13.199-7.1992v-13.199l12-9.6016-12-7.1992v-13.199l13.199-9.6016-13.199-8.3984v-12l12-9.6016-12-8.3984v-13.199l12-8.3984-8.3984-7.207v-14.398l13.199-8.3984-13.199-9.6016v-10.801l13.199-8.3984-14.398-10.801v-12l14.398-9.6016-15.602-9.6016v-9.6016c0-13.199 36-18 36-18v-42h-8.3984c-2.3984 0-3.6016-3.6016-3.6016-3.6016v-6l-19.199-2.3984s-3.6016-2.3984-3.6016-7.1992c0-4.8008 2.3984-6 2.3984-6l6-2.3984v-27.602c0-6 7.1992-7.1992 7.1992-7.1992l21.602-2.3984v-55.199h-6c-4.8008 0-4.8008-4.8008-4.8008-4.8008v-9.6016h-12c-7.1992 0-9.6016-7.1992-9.6016-7.1992v-39.602c-6-1.1992-13.199-10.801-13.199-10.801v-13.199c-17.996-9.5977-14.395-14.395-14.395-14.395s1.1992-4.8008 9.6016-9.6016c8.3984-4.8008 48-8.3984 48-8.3984v-22.801c3.6016-3.6016 19.199-6 27.602-7.1992h2.3984 2.3984c8.3984 1.1992 24 3.6016 27.602 7.1992v21.602s39.602 2.3984 48 8.3984c8.3984 4.8008 9.6016 9.6016 9.6016 9.6016s3.6016 6-14.398 14.398v13.199s-7.1992 9.6016-13.199 10.801v39.602s-2.3984 7.1992-9.6016 7.1992h-12v9.6016s0 4.8008-4.8008 4.8008h-6v55.199l21.602 2.3984s7.1992 1.1992 7.1992 7.1992v27.602l6 2.3984s2.3984 1.1992 2.3984 6-3.6016 7.1992-3.6016 7.1992l-19.199 2.3984v6s0 3.6016-3.6016 3.6016h-8.3984v42s36 3.6016 36 18v9.6016l-15.602 9.6016 14.398 9.6016v12l-13.199 9.6016 13.199 8.3984v10.801l-13.199 10.801 13.199 8.3984v14.398l-10.801 8.3984 12 8.3984v13.199l-12 8.3984 12 9.6016v12l-13.199 8.3984 13.199 9.6016v13.199l-12 7.1992 12 9.6016v13.199l-13.199 7.1992 13.199 9.6016v14.398l-13.199 8.3984 12 12v12l7.1992 3.6016 2.3984 322.8-9.6016 6v28.801zm-214.8-188.4 6 8.3984h10.801v-80.398l7.1992-7.1992v-94.801l-25.199-6v180zm30-174v91.199h16.801v85.199h12v-176.4zm-7.1992 182.4h19.199v-84h-13.199l-6 7.1992z"/>
</svg>
