<?xml version="1.0" encoding="UTF-8"?>
<svg width="1200pt" height="1200pt" version="1.1" viewBox="0 0 1200 1200" xmlns="http://www.w3.org/2000/svg">
 <g>
  <path d="m191.82 389.41h67.234c7.7891 0 14.113-6.3125 14.113-14.102 0-7.7891-6.3125-14.113-14.113-14.113h-42.648c5.5781-8.9648 11.508-17.762 17.734-26.352h221.02c7.7891 0 14.102-6.3125 14.102-14.113s-6.3125-14.113-14.102-14.113l-228.12 0.007812c-4.4414 0-8.6289 2.0898-11.293 5.6406-13.453 17.953-25.668 36.863-36.289 56.242-2.3984 4.3672-2.3164 9.6836 0.22656 13.98 2.5469 4.2969 7.1562 6.9219 12.137 6.9219z"/>
  <path d="m147.54 502.74h203.86c7.7891 0 14.113-6.3125 14.113-14.113s-6.3125-14.113-14.113-14.113h-185.52c2.5547-8.8438 5.3984-17.641 8.5078-26.34h84.672c7.7891 0 14.102-6.3125 14.102-14.113 0-7.8008-6.3125-14.113-14.102-14.113h-94.488c-5.8438 0-11.074 3.6016-13.176 9.0469-7.0547 18.395-12.984 37.344-17.578 56.293-1.0195 4.2109-0.058594 8.6523 2.6172 12.047 2.6992 3.4141 6.7891 5.4062 11.109 5.4062z"/>
  <path d="m388.14 765.65c0-7.7891-6.3242-14.113-14.113-14.113h-199.75c-3.0859-8.6523-5.9023-17.449-8.4609-26.352h384.48c7.7891 0 14.113-6.3125 14.113-14.113 0-7.7773-6.3125-14.113-14.113-14.113h-402.8c-4.332 0-8.4102 1.9922-11.09 5.3867-2.6758 3.4062-3.6484 7.8477-2.6172 12.047 4.6445 19.152 10.523 38.09 17.496 56.27 2.0898 5.4727 7.332 9.0703 13.176 9.0703h209.57c7.7969 0.015625 14.121-6.293 14.121-14.082z"/>
  <path d="m556.02 878.96c0-7.7891-6.3125-14.113-14.113-14.113h-307.95c-6.2383-8.6055-12.156-17.398-17.711-26.34h42.816c7.7891 0 14.113-6.3125 14.113-14.113 0-7.8008-6.3125-14.113-14.113-14.113h-67.414c-4.9805 0-9.6016 2.6289-12.145 6.9102-2.5312 4.2852-2.6172 9.6133-0.22656 13.98 10.586 19.285 22.777 38.219 36.238 56.23 2.6641 3.5625 6.8516 5.6641 11.305 5.6641h315.09c7.7969 0.003907 14.109-6.3164 14.109-14.105z"/>
  <path d="m600 119.98c-123.47 0-240.77 46.801-330.34 131.76-4.1875 3.9727-5.5312 10.094-3.3945 15.469 2.1484 5.3633 7.332 8.8789 13.105 8.8789h126.59c7.7891 0 14.113-6.3125 14.113-14.113 0-7.7891-6.3125-14.102-14.113-14.102h-89.051c80.074-64.512 179.28-99.672 283.09-99.672 244.39 0 444.06 195.07 451.54 437.68h-903.07c0.25391-8.1484 0.70703-16.297 1.3906-24.383h411.64c7.7891 0 14.113-6.3125 14.113-14.113 0-7.7891-6.3125-14.102-14.113-14.102h-424.41c-7.1641 0-13.199 5.375-14.016 12.504-2.0391 17.844-3.0703 36.07-3.0703 54.191 0 17.902 1.0195 36.035 3.0234 53.914 0.80469 7.1406 6.8398 12.527 14.016 12.527h306.7c7.7891 0 14.113-6.3125 14.113-14.113s-6.3125-14.113-14.113-14.113h-293.9c-0.68359-8.0273-1.1172-16.078-1.3672-24.121h903.07c-0.25391 8.1016-0.71875 16.141-1.3906 24.121h-173.84c-7.7891 0-14.113 6.3125-14.113 14.113s6.3125 14.113 14.113 14.113h170.59c-1.5234 10.297-3.4062 20.484-5.6289 30.539h-78.938c-7.7773 0-14.102 6.3242-14.102 14.113 0 7.7891 6.3125 14.113 14.102 14.113h71.785c-8.5938 29.746-20.172 58.223-34.379 85.117h-226.27c-7.7891 0-14.113 6.3125-14.113 14.113 0 7.8008 6.3125 14.113 14.113 14.113h210.05c-79.859 127.93-221.89 213.25-383.5 213.25-104 0-203.3-35.242-283.4-99.926h77.113c7.7891 0 14.113-6.3125 14.113-14.113s-6.3125-14.113-14.113-14.113h-114.59c-5.7734 0-10.969 3.5156-13.105 8.8672-2.1367 5.3633-0.80469 11.484 3.3828 15.469 89.543 85.141 206.95 132.02 330.6 132.02 264.67 0 480-215.33 480-480-0.011719-264.67-215.34-480.01-480.01-480.01z"/>
  <path d="m863.45 559.21c10.164 0 20.125-1.6562 29.617-4.9336 58.441-20.09 85.273-96.66 59.82-170.69-20.797-60.492-71.184-102.74-122.52-102.74-10.164 0-20.125 1.6562-29.617 4.9219-58.441 20.09-85.273 96.66-59.82 170.7 20.805 60.492 71.184 102.74 122.52 102.74zm-53.52-246.74c6.5391-2.2578 13.414-3.3828 20.438-3.3828 39.48 0 78.887 34.414 95.832 83.688 20.387 59.316 1.4023 119.8-42.301 134.83-6.5391 2.2578-13.414 3.3828-20.449 3.3828-39.48 0-78.887-34.414-95.832-83.699-20.391-59.305-1.4062-119.8 42.312-134.82z"/>
  <path d="m870.16 412.61c5.7305 16.672 0.023438 33.746-12.75 38.137-12.773 4.3906-27.777-5.5625-33.508-22.234-5.7305-16.672-0.023438-33.746 12.75-38.137 12.773-4.3945 27.777 5.5625 33.508 22.234"/>
 </g>
</svg>
