<?xml version="1.0" encoding="UTF-8"?>
<svg width="1200pt" height="1200pt" version="1.1" viewBox="0 0 1200 1200" xmlns="http://www.w3.org/2000/svg">
 <path d="m704.68 471.39c-59.375 0-107.77 47.734-109.01 106.85-0.96094-59.363-49.465-107.36-109.04-107.36-60.168 0-109.13 48.949-109.13 109.13 0 60.168 48.961 109.11 109.13 109.11 59.41 0 107.79-47.723 109.01-106.82 0.96094 59.352 49.477 107.34 109.03 107.34 60.168 0 109.13-48.938 109.13-109.11 0-60.168-48.961-109.13-109.12-109.13zm-218.05 193.08c-46.586 0-84.492-37.906-84.492-84.48 0-46.598 37.906-84.492 84.492-84.492 46.598 0 84.492 37.906 84.492 84.492 0 46.582-37.898 84.48-84.492 84.48zm218.05 0.51563c-46.598 0-84.492-37.906-84.492-84.48 0-46.598 37.895-84.492 84.492-84.492 46.57 0 84.492 37.906 84.492 84.492 0 46.586-37.922 84.48-84.492 84.48zm157-86.977c8.7852-114.29-6.6133-283-155.06-355.98-8.1602-4.3555-80.82-42.719-113.91-42.996-33.973 0-106 38.629-114.25 43.117-31.691 17.867-62.461 43.453-84.445 70.199-60.613 73.801-64.992 160.03-64.285 242.04 0.68359 76.992 16.078 157.54 42.406 224.75l-23.988 13.188 45.504 82.738 21.91-12.035c36.168 52.836 81.59 87.203 133.8 100.49 15.191 3.8633 29.953 6.0234 43.969 6.3711 1.9062 0.046875 3.7812 0.070313 5.6523 0.070313 56.699 0 101.09-21.238 148.36-71.039 10.992-11.566 21.133-24.238 30.625-37.738l23.375 12.84 45.492-82.738-24.445-13.43c10.727-27.07 19.523-56.398 26.219-88.055 4.2617-20.172 9.9727-52.285 12.996-90.625l0.21484-0.011719c-0.027344-0.39062-0.10156-0.73828-0.125-1.1484zm-448.63-270.02c19.824-24.121 48.793-48.191 77.34-64.285 20.484-11.137 78.793-40.031 102.54-40.031 22.598 0.20312 81.348 29.004 102.47 40.285 105.6 51.938 137.66 158.43 142.82 253.92-33.793-57.406-95.293-75-131.95-75-50.652 0-92.555 27.289-110.02 40.598-16.547-13.621-56.27-40.598-111.32-40.598-36.266 0-97.078 17.258-130.3 73.621 1.707-65.633 11.953-131.96 58.418-188.51zm316.45 553.97c-43.609 45.91-83.762 64.633-135.55 63.324-12.156-0.33594-25.117-2.2188-38.508-5.6289-51.492-13.105-91.535-48.434-121.91-94.523l-6.6484-13.523h119.99v19.824h94.414v-19.824h126.66c-11.547 18.48-24.254 35.422-38.449 50.352zm71.102-116.07-0.55078-0.30078-19.211 41.387h-139.56v-21.215h-94.414v21.215l-132.1 0.003906-19.848-40.355-0.74219 0.40625c-21.406-55.789-33.406-116.81-37.824-170.72 8.832-126.74 123.72-128.79 128.59-128.8 61.367 0 101.77 40.367 102.16 40.754l8.293 8.5078 8.8086-7.9922c0.45703-0.39453 46.211-41.258 102.07-41.258 4.957 0 120.64 1.5586 130.73 130.67-2.9414 36.562-8.4102 67.285-12.48 86.508-6.1836 29.195-14.234 56.195-23.918 81.191zm-227.81-498.88c0-11.328 9.1797-20.508 20.508-20.508s20.508 9.1797 20.508 20.508-9.1914 20.508-20.508 20.508c-11.316 0-20.508-9.1797-20.508-20.508zm-86.16 271.61c4.2344 0 8.4102 0.44531 12.422 1.2617v43.297c-3.4688-2.6992-7.7891-4.3672-12.539-4.3672-4.6211 0-8.8672 1.5977-12.301 4.1992v-43.129c4.0039-0.82031 8.1562-1.2617 12.418-1.2617zm61.367 61.367c0 19.895-9.5625 37.57-24.312 48.805v-97.621c14.75 11.23 24.324 28.895 24.312 48.816zm-61.488 19.848c4.7539 0 9.0703-1.668 12.539-4.3789v44.641c-4.0078 0.81641-8.1719 1.2617-12.422 1.2617-4.2617 0-8.4102-0.42188-12.422-1.2617v-44.473c3.4375 2.6016 7.6836 4.2109 12.305 4.2109zm-36.938-68.664v97.621c-14.762-11.207-24.336-28.883-24.336-48.805s9.5781-37.609 24.336-48.816zm255.11-12.035c4.2617 0 8.4102 0.44531 12.422 1.2617v43.297c-3.4688-2.6875-7.7773-4.3672-12.516-4.3672-4.6328 0-8.8789 1.6094-12.324 4.2227v-43.152c3.9961-0.83203 8.1562-1.2617 12.418-1.2617zm61.355 61.367c0 19.906-9.5508 37.57-24.301 48.805v-97.609c14.738 11.223 24.301 28.898 24.301 48.805zm-61.453 19.859c4.7383 0 9.0469-1.6797 12.516-4.3789v44.629c-4.0078 0.81641-8.1602 1.2617-12.422 1.2617-4.2461 0-8.4102-0.44531-12.422-1.2617v-44.473c3.4492 2.6055 7.6875 4.2227 12.328 4.2227zm-36.957-68.676v97.645c-14.746-11.23-24.324-28.906-24.324-48.828 0-19.918 9.5742-37.582 24.324-48.816z"/>
</svg>
