<?xml version="1.0" encoding="UTF-8"?>
<svg width="1200pt" height="1200pt" version="1.1" viewBox="0 0 1200 1200" xmlns="http://www.w3.org/2000/svg">
 <g>
  <path d="m497.77 722.45c0 56.367 45.859 102.22 102.22 102.22 56.363 0 102.23-45.855 102.23-102.22 0-56.367-45.867-102.22-102.23-102.22-56.359 0-102.22 45.855-102.22 102.22zm102.23-69.938c21.59 0 39.16 17.555 39.16 39.152 0 21.586-17.566 39.152-39.16 39.152-21.586 0-39.152-17.566-39.152-39.152-0.003906-21.598 17.566-39.152 39.152-39.152z"/>
  <path d="m955.78 657.55c0.82031-0.070312 1.6406 0 2.4258 0.19922l10.664 2.7305 43.617-14.625c-7.7344-33.691-19.535-65.812-34.77-95.895l-229.59 126.69z"/>
  <path d="m667.93 226.19v96.984c-2.0039-0.32031-4.0078-0.61719-6.0117-0.91016v290.84c0 3.6562-2.7539 6.6328-6.3047 7.043 24.012 13.102 42.867 34.43 52.887 60.141l22.066-2.0273-40.676-64.277c-1.9805-3.1328-1.2305-7.2539 1.7227-9.4922l208.52-157.98-0.070313-3.875c-6.1055-6.1406-12.34-12.145-18.82-17.906l-188.03-387.41h-35.414v37.102l-7.6875 11.801v124.8h7.6875zm112.22 62.23c15.363 0 27.82 12.457 27.82 27.828 0 15.363-12.457 27.828-27.82 27.828-15.363 0-27.832-12.461-27.832-27.828 0-15.371 12.469-27.828 27.832-27.828zm-51.352-102.71c15.363 0 27.82 12.461 27.82 27.828 0 15.371-12.457 27.828-27.82 27.828s-27.82-12.457-27.82-27.828c0-15.363 12.457-27.828 27.82-27.828z"/>
  <path d="m240.61 657.75c0.79297-0.19922 1.6055-0.26953 2.418-0.19922l248.41 22.852c10.016-25.77 28.895-47.145 52.93-60.258-3.543-0.41016-6.3047-3.3867-6.3047-7.043v-290.85c-3.582 0.52734-7.1445 1.0781-10.688 1.6914v-97.75l10.121-15.176h7.6914v-124.8l-7.6914-11.801v-37.102h-35.414l-191.76 395.11c-59.828 56.184-103.32 129.55-122.56 212.24l42.793 15.668zm228.59-472.04c15.363 0 27.82 12.461 27.82 27.828 0 15.371-12.457 27.828-27.82 27.828-15.371 0-27.828-12.457-27.828-27.828 0-15.363 12.457-27.828 27.828-27.828zm-51.352 102.71c15.371 0 27.828 12.457 27.828 27.828 0 15.363-12.457 27.828-27.828 27.828-15.371 0-27.828-12.461-27.828-27.828 0-15.371 12.457-27.828 27.828-27.828z"/>
  <path d="m647.67 234.84c-15.645-1.7656-31.559-2.6953-47.68-2.6953-16.121 0-32.027 0.91797-47.68 2.6797v371.16h95.355z"/>
  <path d="m1002 683.4-46.113-11.543-229.98 21.141-12.949 1.1953c2.2617 9.0586 3.5391 18.504 3.5391 28.254 0 9.7969-1.2305 19.312-3.5273 28.418l241.07 26.273 0.84375-0.28125 47.121-15.164z"/>
  <path d="m196.58 683.4 46.105-11.543 229.98 21.141 12.949 1.1953c-2.2695 9.0586-3.5352 18.504-3.5352 28.254 0 9.7969 1.2305 19.312 3.5195 28.418l-241.07 26.273-0.83594-0.28125-47.117-15.164z"/>
  <path d="m876.28 1005.6-214.29-184.62c-17.965 11.344-39.223 17.941-62 17.941-24.117 0-46.535-7.3945-65.133-20.004l-216.68 186.68-8.6875 57.586c30.215 26.203 142.58 114.13 289.63 114.13 144.62 0 254.46-83.309 286.41-110.47zm-382.23-7.0547c-19.422 0-35.168-15.738-35.168-35.168 0-19.418 15.746-35.156 35.168-35.156 19.418 0 35.168 15.738 35.168 35.156 0 19.43-15.75 35.168-35.168 35.168zm35.305-77.73c-19.422 0-35.168-15.75-35.168-35.168s15.746-35.168 35.168-35.168c19.418 0 35.164 15.75 35.164 35.168-0.003906 19.418-15.75 35.168-35.164 35.168zm70.641 100.56c-19.422 0-35.164-15.75-35.164-35.168s15.738-35.168 35.164-35.168c19.426 0 35.164 15.75 35.164 35.168-0.003906 19.418-15.742 35.168-35.164 35.168zm0-84.152c-19.422 0-35.164-15.75-35.164-35.168s15.738-35.168 35.164-35.168c19.426 0 35.164 15.75 35.164 35.168-0.003906 19.418-15.742 35.168-35.164 35.168zm36.297-51.574c0-19.418 15.738-35.168 35.156-35.168 19.43 0 35.168 15.75 35.168 35.168s-15.738 35.168-35.168 35.168c-19.418 0-35.156-15.75-35.156-35.168zm65.332 112.9c-19.43 0-35.168-15.738-35.168-35.168 0-19.418 15.738-35.156 35.168-35.156 19.418 0 35.168 15.738 35.168 35.156 0 19.43-15.75 35.168-35.168 35.168z"/>
  <path d="m887.59 996.53c1.2891 1.1133 2.1328 2.6602 2.3906 4.3359l6.3633 42.176c63.199-62.004 107.06-143.65 121.61-235.08l-52.43-19.559-8.5898 2.7656c-0.70313 0.22266-1.4414 0.33984-2.1797 0.33984-0.25781 0-0.51562-0.011718-0.77344-0.046874l-245.48-26.742c-7.3242 18.727-19.359 35.098-34.629 47.672z"/>
  <path d="m304.48 1000.9c0.25-1.6758 1.1055-3.2227 2.3945-4.3359l216.46-186.49c-13.984-12.27-25.02-27.82-31.887-45.445l-246.61 26.871c-0.25781 0.035156-0.51562 0.046874-0.77344 0.046874-0.73828 0-1.4766-0.11719-2.1797-0.33984l-8.4961-2.7305-51.352 19.5c14.172 89.109 56.168 168.95 116.79 230.34z"/>
  <path d="m998.53 339.18h-67.465l-18.551 80.465-0.42188 35.578-206.66 156.67 33.785 53.391 278.73-154.23v-91.418zm-54.012 52.301h-19.723l11.414-45.535h14.004zm5.9531 0 5.707-45.535h16.863l5.707 45.535zm34.23 0-5.707-45.535h14.016l11.414 45.535z"/>
 </g>
</svg>
