<?xml version="1.0" encoding="UTF-8"?>
<svg width="1200pt" height="1200pt" version="1.1" viewBox="0 0 1200 1200" xmlns="http://www.w3.org/2000/svg">
 <g>
  <path d="m573.67 954.91c6.6758 6.6758 6.6758 17.504 0 24.184-6.6797 6.6758-17.504 6.6758-24.184 0-6.6797-6.6797-6.6797-17.508 0-24.184 6.6797-6.6797 17.504-6.6797 24.184 0"/>
  <path d="m693.81 1075.1c6.6758 6.6758 6.6758 17.504 0 24.184-6.6797 6.6758-17.508 6.6758-24.184 0-6.6797-6.6797-6.6797-17.508 0-24.184 6.6758-6.6797 17.504-6.6797 24.184 0"/>
  <path d="m390.24 912.17c2.4414 9.125-2.9727 18.5-12.094 20.945-9.1211 2.4414-18.496-2.9727-20.941-12.094-2.4453-9.1211 2.9688-18.496 12.09-20.941 9.1211-2.4453 18.5 2.9688 20.945 12.09"/>
  <path d="m558.48 598.39c9.1211 2.4453 14.535 11.82 12.09 20.945-2.4453 9.1211-11.82 14.535-20.941 12.09-9.125-2.4453-14.535-11.82-12.094-20.941 2.4453-9.125 11.82-14.535 20.945-12.094"/>
  <path d="m514.52 762.48c9.1211 2.4453 14.535 11.82 12.09 20.945-2.4414 9.1211-11.82 14.535-20.941 12.09-9.1211-2.4453-14.535-11.82-12.09-20.941 2.4414-9.125 11.82-14.535 20.941-12.094"/>
  <path d="m708.17 474.3c2.4414 9.1211-2.9727 18.5-12.094 20.941-9.1211 2.4453-18.496-2.9688-20.941-12.09-2.4453-9.1211 2.9688-18.496 12.09-20.941 9.125-2.4453 18.5 2.9688 20.945 12.09"/>
  <path d="m600.6 328.5c37.922 0 68.82-30.84 68.82-68.82 0-37.98-30.84-68.82-68.82-68.82-37.922 0-68.82 30.84-68.82 68.82 0 37.98 30.898 68.82 68.82 68.82zm0-102.54c18.602 0 33.781 15.18 33.781 33.781 0 18.602-15.18 33.781-33.781 33.781-18.602 0-33.781-15.18-33.781-33.781 0-18.664 15.18-33.781 33.781-33.781z"/>
  <path d="m751.08 300.72c0 9.4453-7.6523 17.102-17.098 17.102-9.4453 0-17.102-7.6562-17.102-17.102 0-9.4414 7.6562-17.098 17.102-17.098 9.4453 0 17.098 7.6562 17.098 17.098"/>
  <path d="m913.32 552.6c-17.219-21.539-36.84-41.398-58.199-58.98-17.102-14.102-35.398-26.762-54.539-37.859h19.559c3.9609 0 7.7383-1.8008 10.199-4.9219l45.48-56.82c1.8594-2.3398 2.8789-5.1602 2.8789-8.1602v-3c0-153.3-124.74-278.04-278.04-278.04-3.8984 0-7.8594 0.058594-12.121 0.23828v-82.137-0.60156-0.60156c0-11.941-9.7188-21.66-21.66-21.66s-21.66 9.7188-21.66 21.66v0.60156 0.60156 87.422c-7.9805 1.6211-16.078 3.6016-24.121 6.0586v-26.039-0.35938-0.35938c0-11.941-9.7188-21.66-21.66-21.66s-21.66 9.7188-21.66 21.66v0.35938 0.35938 43.02c-45.48 22.441-83.941 56.879-111.42 99.66-28.68 44.699-43.859 96.539-43.859 149.76v3c0 2.9414 1.0195 5.8203 2.8789 8.1602l45.48 56.82c2.4609 3.1211 6.2383 4.9219 10.199 4.9219h18.422c-19.141 11.102-37.441 23.762-54.539 37.859-21.422 17.641-40.98 37.5-58.199 58.98-56.578 70.68-87.781 159.66-87.781 250.5 0 221.16 179.94 401.1 401.1 401.1s401.1-179.94 401.1-401.1c-0.058594-90.848-31.262-179.77-87.84-250.45zm-84.719-24.84c-4.1992 0.60156-8.5195 1.2617-12.781 2.0391l-4.0781-15.18c5.6367 4.1992 11.277 8.5781 16.859 13.141zm-432.96-115.32-14.641-18.242h77.879c11.941 0 21.66-9.7188 21.66-21.66 0-11.941-9.7188-21.66-21.66-21.66h-90.898c7.5-54.898 34.379-105.48 76.02-142.86 43.141-38.699 98.762-60 156.6-60 57.84 0 113.46 21.301 156.6 60 41.641 37.32 68.52 87.961 76.02 142.86h-298.8c-11.941 0-21.602 9.7188-21.602 21.66 0 11.941 9.6602 21.602 21.602 21.66h285.78l-14.578 18.238zm37.5 74.039c25.621-13.559 52.68-23.941 80.52-30.781h172.56c0.23828 0.058593 0.42188 0.12109 0.66016 0.17969 24.66 6.1797 48.602 14.941 71.281 26.16l15.898 58.98c-35.641 12.961-68.52 33.898-95.34 60.719-14.102 14.102-26.52 29.699-36.961 46.441-9.6602 15.48-17.699 31.98-23.941 49.141l-158.21-42.48c10.199-57.719 0.89844-117.18-26.461-168.36zm-129.48 115.86c1.9805 28.738-8.5781 57.18-29.16 77.82-4.6211 4.6211-9.6602 8.7617-15.059 12.422 10.258-31.922 25.137-62.16 44.219-90.242zm-61.559 200.76c0-18.961 1.5-38.039 4.3789-56.82 22.02-6.8984 42.238-19.141 58.5-35.461 39.84-39.84 52.68-99.059 33.059-151.62 17.641-18.84 37.141-35.641 58.078-50.16 10.078 19.379 17.16 40.199 21 61.859 4.0195 22.68 4.3789 45.781 1.1992 68.699-3.2383 22.98-10.02 45.121-20.219 65.879-10.441 21.301-24.301 40.621-41.039 57.359-27.059 27.059-60.719 46.5-97.441 56.281-5.6406 1.5-11.281 2.7617-16.859 3.7188-0.47656-6.7148-0.65625-13.258-0.65625-19.734zm28.02 138.66c-0.058594-0.17969-0.17969-0.42188-0.23828-0.60156v-0.058594-0.058593c-10.141-24.121-17.52-49.32-22.141-75.238 0.66016-0.12109 1.2617-0.23828 1.9219-0.35938h2.1602l22.32 83.039s-2.5781-3.7812-4.0195-6.8984zm21.301-87.363c17.34-6.1797 34.02-14.281 49.738-24.059 16.801-10.5 32.461-22.922 46.5-36.961 14.219-14.219 26.762-30.059 37.262-47.219 9.5391-15.539 17.52-32.219 23.641-49.5l158.04 42.539c-2.7617 15.48-4.1992 31.141-4.1992 46.738 0 31.621 5.5781 62.398 16.5 91.621 10.5 27.961 25.621 53.699 45.059 76.559l-115.02 115.08c-23.039-19.559-48.961-34.801-77.102-45.359-29.039-10.859-59.52-16.379-90.602-16.379-15.84 0-31.801 1.4414-47.52 4.3789zm154.32 271.5c-37.621-18.059-71.52-42.301-100.86-72.121 12-2.0391 24.238-3.0586 36.359-3.0586 28.32 0 55.98 5.4609 82.141 16.262 26.52 10.922 50.398 26.879 70.922 47.461 13.441 13.379 25.078 28.559 34.621 45.121-42.961-3.7227-84.363-15.004-123.18-33.664zm371.04-38.34c-18.898 14.461-39.301 27-60.539 37.379-21.66 10.559-44.461 18.898-67.738 24.898-22.98 5.8789-46.68 9.4219-70.5 10.621-9.8984-21.898-22.859-42.301-38.461-60.66l115.14-115.14c46.859 39.719 106.14 61.559 167.52 61.621-13.922 15.062-29.164 28.922-45.422 41.281zm81.84-87.48c-11.879 1.9805-24 3-35.941 3-28.5 0-56.281-5.5195-82.559-16.379-26.52-10.922-50.34-26.879-70.738-47.281-41.039-41.039-63.602-95.578-63.602-153.54 0-57.961 22.559-112.56 63.602-153.54 26.82-26.82 60.238-46.199 96.66-56.039 18.422-4.9805 37.5-7.5 56.699-7.5 2.6406 0 5.3398 0.058594 8.0391 0.12109 3.1797 3.7188 6.1211 7.1992 8.8789 10.68 19.262 24.059 35.281 50.219 47.641 78-19.859-9.9609-41.941-15.18-64.441-15.18-18.66 0-36.84 3.5391-54.059 10.5-17.82 7.1992-33.781 17.82-47.461 31.5-27.121 27.121-42.059 63.18-42.059 101.58 0 38.34 14.941 74.398 42.059 101.58 13.68 13.68 29.641 24.238 47.461 31.441 17.219 6.9609 35.398 10.5 54.059 10.5 16.141 0 31.98-2.6406 47.16-7.9219 11.762-4.0781 22.801-9.6016 33.059-16.5-10.02 33.543-24.957 65.461-44.457 94.98zm35.098-143.16c-9.5391 9.5391-20.699 16.98-33.18 22.02-12 4.8594-24.719 7.3203-37.801 7.3203-13.02 0-25.738-2.4609-37.801-7.3203-12.422-5.0391-23.578-12.422-33.18-22.02-18.961-18.961-29.398-44.16-29.398-70.98 0-26.82 10.441-52.02 29.398-70.98 9.5391-9.5391 20.699-16.98 33.18-22.02 12-4.8594 24.719-7.3203 37.801-7.3203 13.02 0 25.738 2.4609 37.801 7.3203 12.422 5.0391 23.578 12.422 33.18 22.02l0.058594 0.058593c7.6211 7.5586 13.98 16.32 18.781 26.039 3.5391 20.281 5.2812 41.16 5.2812 62.039 0 5.7617-0.12109 10.98-0.35938 15.961-4.9805 14.281-12.961 27-23.762 37.863z"/>
 </g>
</svg>
