<?xml version="1.0" encoding="UTF-8"?>
<svg width="1200pt" height="1200pt" version="1.1" viewBox="0 0 1200 1200" xmlns="http://www.w3.org/2000/svg">
 <g>
  <path d="m455.25 1022c-26.496-3.2305-42.004-38.773-93.055-35.543 0 0-56.543 3.8789-48.465 58.805s49.113 75.93 105.98 55.574c56.867-20.355 67.852-41.355 71.082-55.574 3.2344-14.215-9.043-20.031-35.539-23.262zm-42.973 60.418c-15.508 0-28.434-12.602-28.434-28.434 0-15.508 12.602-28.434 28.434-28.434 15.508 0 28.434 12.602 28.434 28.434s-12.602 28.434-28.434 28.434z"/>
  <path d="m837.16 986.43c-51.051-3.2305-66.234 32.309-93.055 35.543-26.816 3.2305-38.773 9.0469-35.543 23.262 3.2305 14.215 14.539 35.543 71.082 55.574s97.578-0.64453 105.65-55.574c8.082-54.926-48.137-58.805-48.137-58.805zm-50.082 95.961c-15.508 0-28.434-12.602-28.434-28.434 0-15.508 12.602-28.434 28.434-28.434s28.434 12.602 28.434 28.434-12.602 28.434-28.434 28.434z"/>
  <path d="m335.7 590.63c36.188-19.387 185.79-95.316 185.79-97.578s6.4609-14.539-9.0469-16.801c-15.508-2.2617-228.76 7.1094-228.76 7.1094s-24.234-0.64453-13.57 38.125c10.664 38.773 29.078 88.531 65.59 69.145z"/>
  <path d="m915.67 483.04s-213.25-9.6914-228.43-7.1094c-15.188 2.5859-9.0469 14.539-9.0469 16.801s149.27 78.191 185.79 97.578c36.188 19.387 54.926-30.695 65.266-69.469 10.336-38.773-13.57-37.801-13.57-37.801z"/>
  <path d="m1130.2 785.46c-3.5547-68.82-66.559-130.53-86.914-148.62 0.64453-20.031 1.9375-75.93 1.9375-128.59 0-54.926-26.496-77.543-42.973-86.27v-51.695c0-313.09-300.48-337.32-392.57-337.32h-10.016-6.4609-10.016c-91.762-0.003907-392.25 24.551-392.25 337.31v52.02c-15.508 9.0469-39.742 31.664-39.742 85.621 0 52.664 2.9062 108.24 3.8789 128.59-20.355 18.094-81.422 78.191-85.621 146.36-1.9375 33.602 9.6914 63.973 34.895 90.469 70.758 73.668 78.836 120.84 78.836 121.16v0.64453c0.32422 1.6172 7.7539 42.004 34.25 84.008 35.863 56.219 89.176 88.207 154.44 92.086 7.1094 0.32422 13.895 0.64453 20.68 0.96875h8.7227c81.098 0 103.71-24.234 120.52-41.68 8.4023-9.0469 12.277-12.602 21-13.57 15.188-1.9375 34.895-3.2305 55.574-3.2305 20.68 0 40.387 0.96875 55.574 3.2305 8.7227 1.293 12.926 5.168 21.648 13.895 17.125 17.449 41.035 41.68 121.81 41.68h6.1406c7.7539 0 15.832-0.32422 23.262-0.96875 65.266-3.8789 118.58-35.543 154.44-92.086 26.496-41.68 33.926-82.391 34.25-84.008v-0.96875c0-0.64453 7.1094-49.434 78.516-120.84 25.848-25.199 37.801-55.246 36.188-88.203zm-754.45-676.9c76.898-37.48 163.17-43.297 207.76-43.297h9.3711 3.5547 3.5547 9.3711c44.59 0 130.86 5.4922 207.75 43.297 100.81 49.434 152.18 137.96 152.5 260.74h-746.05c0-122.78 51.375-211.31 152.18-260.74zm695.64 742.49c-76.254 76.254-86.59 131.5-87.562 139.26-1.6172 9.0469-28.758 141.52-158.64 148.95-7.1094 0.32422-14.863 0.64453-21.973 0.64453h-5.8164c-67.527 0-84.008-17.125-98.871-31.988-9.3711-9.6914-20.355-20.68-40.711-23.262-16.477-2.2617-37.805-3.2305-59.773-3.2305-21.973 0-43.297 1.293-59.773 3.2305-20.355 2.5859-31.02 13.895-40.066 23.586-13.895 14.863-29.727 31.664-96.93 31.664h-8.0781c-6.1406 0-12.602-0.32422-19.387-0.64453-130.86-7.7539-157.35-141.84-158.64-149.27-0.96875-6.4609-11.633-59.773-87.562-138.93-19.062-19.711-27.465-41.355-26.172-65.914 3.8789-65.914 79.484-128.27 80.129-128.92l6.4609-5.168-0.30859-8.0781c0-0.64453-4.1992-70.113-4.1992-134.73 0-49.434 24.879-58.805 27.785-59.773l12.277-2.2617v0.64453h747.66l11.633 2.2617c0.32422 0 30.371 7.1094 30.371 59.449 0 64.621-2.2617 134.41-2.2617 135.05l-0.32422 8.0781 6.1406 5.168c0.32422 0 19.711 16.156 40.066 41.035 18.094 21.973 39.742 55.574 41.355 89.5 0.96484 23.59-7.7578 44.594-26.82 63.656z"/>
  <path d="m221.32 747.34c6.1406-3.5547 8.0781-11.633 4.5234-17.77-2.2617-3.8789-6.4609-6.1406-10.984-6.1406-2.2617 0-4.5234 0.64453-6.7852 1.9375l-58.16 35.219c-2.9062 1.9375-5.168 4.5234-5.8164 8.0781-0.96875 3.2305-0.32422 6.7852 1.6172 9.6914 2.2617 3.8789 6.4609 6.1406 10.984 6.1406 2.2617 0 4.5234-0.64453 6.7852-1.9375z"/>
  <path d="m240.71 781.26c6.1406-3.5547 8.0781-11.633 4.5234-17.77-2.2617-3.8789-6.4609-6.1406-10.984-6.1406-2.2617 0-4.5234 0.64453-6.7852 1.9375l-58.16 35.219c-2.9062 1.9375-5.168 4.5234-5.8164 8.0781-0.96875 3.2305-0.32422 6.7852 1.6172 9.6914 2.2617 3.8789 6.4609 6.1406 10.984 6.1406 2.2617 0 4.5234-0.64453 6.7852-1.9375z"/>
  <path d="m260.1 815.19c6.1406-3.5547 8.0781-11.633 4.5234-17.77-2.2617-3.8789-6.4609-6.1406-10.984-6.1406-2.2617 0-4.5234 0.64453-6.7852 1.9375l-58.16 35.219c-2.9062 1.9375-5.168 4.5234-5.8164 8.0781-0.96875 3.2305-0.32422 6.7852 1.6172 9.6914 2.2617 3.8789 6.4609 6.1406 10.984 6.1406 2.2617 0 4.5234-0.64453 6.7852-1.9375z"/>
  <path d="m272.7 825.2c-2.2617 0-4.5234 0.64453-6.7852 1.9375l-58.16 35.219c-2.9062 1.9375-5.168 4.5234-5.8164 8.0781-0.96875 3.2305-0.32422 6.7852 1.6172 9.6914 2.2617 3.8789 6.4609 6.1406 10.984 6.1406 2.2617 0 4.5234-0.64453 6.7852-1.9375l58.16-35.219c6.1406-3.5547 8.0781-11.633 4.5234-17.77-2.5859-3.8789-6.7852-6.1406-11.309-6.1406z"/>
  <path d="m552.18 912.12h-1.6172c-7.4297 0-13.57 6.1406-13.57 13.57l0.003906 111.47c0 7.4297 6.1406 13.57 13.57 13.57h1.6172c7.4297 0 13.57-6.1406 13.57-13.57v-111.47c-0.003906-7.4336-6.1406-13.57-13.574-13.57z"/>
  <path d="m600.64 879.8h-1.6172c-7.4297 0-13.57 6.1406-13.57 13.57l0.003907 150.24c0 7.4297 6.1406 13.57 13.57 13.57h1.6172c7.4297 0 13.57-6.1406 13.57-13.57v-150.24c-0.003906-7.4297-6.1406-13.57-13.574-13.57z"/>
  <path d="m1050.1 760.26-58.16-35.219c-1.9375-1.293-4.1992-1.9375-6.7852-1.9375-4.5234 0-8.7227 2.2617-10.984 6.1406-3.5547 6.1406-1.6172 13.895 4.5234 17.77l58.16 35.219c1.9375 1.293 4.1992 1.9375 6.7852 1.9375 4.5234 0 8.7227-2.2617 10.984-6.1406 1.9375-2.9062 2.2617-6.4609 1.6172-9.6914-1.2969-3.5547-3.2344-6.4609-6.1406-8.0781z"/>
  <path d="m1030.7 794.18-58.16-35.219c-1.9375-1.293-4.1992-1.9375-6.7852-1.9375-4.5234 0-8.7227 2.2617-10.984 6.1406-3.5547 6.1406-1.6172 13.895 4.5234 17.77l58.16 35.219c1.9375 1.293 4.1992 1.9375 6.7852 1.9375 4.5234 0 8.7227-2.2617 10.984-6.1406 1.9375-2.9062 2.2617-6.4609 1.6172-9.6914-1.293-3.5547-3.2344-6.4609-6.1406-8.0781z"/>
  <path d="m1011.3 828.11-58.16-35.219c-1.9375-1.293-4.1992-1.9375-6.7852-1.9375-4.5234 0-8.7227 2.2617-10.984 6.1406-3.5547 6.1406-1.6172 13.895 4.5234 17.77l58.16 35.219c1.9375 1.293 4.1992 1.9375 6.7852 1.9375 4.5234 0 8.7227-2.2617 10.984-6.1406 1.9375-2.9062 2.2617-6.4609 1.6172-9.6914-1.293-3.5547-3.2344-6.4609-6.1406-8.0781z"/>
  <path d="m991.92 862.04-58.16-35.219c-1.9375-1.293-4.1992-1.9375-6.7852-1.9375-4.5234 0-8.7227 2.2617-10.984 6.1406-3.5547 6.1406-1.6172 13.895 4.5234 17.77l58.16 35.219c1.9375 1.293 4.1992 1.9375 6.7852 1.9375 4.5234 0 8.7227-2.2617 10.984-6.1406 1.9375-2.9062 2.2617-6.4609 1.6172-9.6914-1.293-3.5547-3.2305-6.4609-6.1406-8.0781z"/>
  <path d="m649.11 912.12h-1.6172c-7.4297 0-13.57 6.1406-13.57 13.57v111.47c0 7.4297 6.1406 13.57 13.57 13.57h1.6172c7.4297 0 13.57-6.1406 13.57-13.57v-111.47c0-7.4336-6.1406-13.57-13.57-13.57z"/>
  <path d="m805.82 815.83c2.2617 0 4.1992-0.96875 5.4922-2.9062 1.6172-2.9062 0.96875-6.4609-1.6172-8.4023-5.8164-4.5234-145.72-107.91-204.52-118.58-0.96875-0.32422-3.2305 0-5.168 0h-0.96875c-1.9375 0-4.1992-0.32422-5.168 0-58.805 10.664-198.38 114.05-204.52 118.25-2.5859 1.9375-3.2305 5.8164-1.6172 8.7227 1.293 1.9375 3.2305 3.2305 5.4922 3.2305 0.96875 0 1.9375 0 2.9062-0.32422 121.16-59.129 178.68-65.266 197.74-65.266h10.664c19.062 0 76.574 6.1406 197.74 65.266 1.6172 0.32812 2.5859 0.003906 3.5547 0.003906z"/>
 </g>
</svg>
