<?xml version="1.0" encoding="UTF-8"?>
<svg width="1200pt" height="1200pt" version="1.1" viewBox="0 0 1200 1200" xmlns="http://www.w3.org/2000/svg">
 <path d="m1064.5 430.75-22.852-37.395c-1.1016-1.5898-2.6875-2.8125-4.5195-3.1758l-19.43-4.8867c-2.1992-44.48-28.719-330.43-344.23-366.11-9.5312-15.031-50.469-19.184-73.441-19.184s-63.91 4.1562-73.441 19.184c-315.52 35.68-342.04 321.63-344.24 366.11l-19.43 4.8867c-1.832 0.36719-3.4219 1.5898-4.5195 3.1758l-22.852 37.395c-0.73438 1.1016-1.1016 2.4453-1.1016 3.7891v154.58c0 0.85547 0 1.7109 0.48828 2.5664l16.254 42.281v394.83c0 4.0312 3.3008 7.332 7.332 7.332h29.816l22.852 6.8438 283.02 156.05c2.9336 1.5898 6.4766 1.1016 8.7969-1.2227l23.707-24.562h146.64l23.707 24.562c1.3438 1.4648 3.3008 2.1992 5.2539 2.1992 1.2227 0 2.4453-0.36719 3.543-0.97656l283.02-156.05 22.852-6.8438h29.816c4.0312 0 7.332-3.3008 7.332-7.332v-394.83l16.254-42.281c0.36719-0.85547 0.48828-1.7109 0.48828-2.5664v-154.58c0-1.3438-0.36719-2.6875-1.1016-3.7891zm-882.4 590.71h-16.254v-388.84c0-0.85547 0-1.7109-0.48828-2.5664l-16.254-42.281v-151.16l20.285-32.992 12.707-3.1758v621.02zm493.44-987.12c299.75 36.051 325.42 300.49 327.5 349.37h-327.5zm-90.426-19.184c4.7656-0.24609 9.6523-0.48828 14.91-0.48828 5.2539 0 10.141 0.24609 14.91 0.48828v368.55h-29.816l-0.007812-368.56zm-45.945 11.73c2.1992-3.0547 13.562-7.4531 31.281-10.141v374.3c0 4.0312 3.3008 7.332 7.332 7.332h44.48c4.0312 0 7.332-3.3008 7.332-7.332v-374.3c18.086 2.5664 29.574 6.9648 31.281 9.2891v380.65l-26.762 26.762h-68.188l-26.762-26.762v-379.8zm-14.664 7.4531v349.37h-327.5c2.0781-48.879 27.738-313.32 327.5-349.37zm-316.01 992.5-11.73-3.4219v-403.99l66.598 159.11zm13.809 5.5 54.133-244.89c154.95 52.301 175.97 251.36 188.55 371.12 0.36719 2.9336 0.60938 5.375 0.85547 8.0664l-243.54-134.3zm259.31 142.97c-0.73438-5.8672-1.3438-11.852-1.957-18.207-13.074-124.52-35.07-332.26-203.1-385.17l-73.688-175.97c190.27 76.863 269.08 238.17 286.93 583.87l-8.1875-4.5195zm236.82 0-8.1875 4.5195c17.84-345.7 96.66-507.01 286.93-583.87l-73.688 175.97c-168.02 52.914-190.02 260.65-203.1 385.17-0.60938 6.3555-1.2227 12.344-1.957 18.207zm15.766-8.6758c0.24609-2.6875 0.48828-5.1328 0.85547-8.0664 12.586-119.75 33.605-318.82 188.55-371.12l54.133 244.89-243.54 134.3zm269.08-143.22-11.73 3.4219-54.867-248.31 66.598-159.11zm0-445.54c-204.2 77.23-288.51 240.73-307.45 597.55l-41.914-43.258 19.797-551.12 303.05-68.797c3.3008-0.73438 5.7422-3.7891 5.7422-7.2109v-40.449c0-1.957-0.85547-3.9102-2.4453-5.375-1.4648-1.3438-3.4219-2.0781-5.5-1.832-1.7109 0.12109-169.12 13.93-374.54 13.93s-372.83-13.809-374.54-13.93c-2.0781-0.24609-4.0312 0.48828-5.5 1.832-1.5898 1.4648-2.4453 3.4219-2.4453 5.375v40.449c0 3.4219 2.4453 6.4766 5.7422 7.2109l303.05 68.797 19.797 551.12-41.914 43.258c-18.941-356.82-103.26-520.32-307.45-597.55v-179.51h327.74v11.363c0 1.957 0.73438 3.7891 2.1992 5.1328l30.918 31.16c1.4648 1.3438 3.3008 2.0781 5.2539 2.0781h74.297c1.957 0 3.7891-0.73438 5.2539-2.0781l30.918-31.16c1.4648-1.3438 2.1992-3.1758 2.1992-5.1328v-11.363h327.74v179.51zm47.656 9.8984-16.254 42.281c-0.36719 0.85547-0.48828 1.7109-0.48828 2.5664v388.84h-16.254v-621.02l12.707 3.1758 20.285 32.992v151.16z"/>
</svg>
