<?xml version="1.0" encoding="UTF-8"?>
<svg width="1200pt" height="1200pt" version="1.1" viewBox="0 0 1200 1200" xmlns="http://www.w3.org/2000/svg">
 <g>
  <path d="m841.2 678c-2.3984 13.199-7.1992 26.398-14.398 39.602l-60 81.602-114-141.6c-6-7.1992-14.398-12-24-12h-61.199c-9.6016 0-18 3.6016-24 12l-111.6 141.6-62.398-81.602c-1.1992-1.1992-1.1992-1.1992-1.1992-2.3984-4.8008-9.6016-9.6016-20.398-12-31.199-4.8008 13.199-9.6016 26.398-14.398 39.602 1.1992 1.1992 1.1992 2.3984 2.3984 3.6016 1.1992 2.3984 2.3984 4.8008 4.8008 7.1992l66 86.398c-3.6016 8.3984-4.8008 16.801-1.1992 25.199l65.996 159.6c4.8008 10.801 15.602 18 27.602 18h19.199c6 0 10.801-2.3984 14.398-6 14.398-15.602 36-26.398 58.801-26.398s44.398 9.6016 58.801 26.398c3.6016 3.6016 9.6016 6 14.398 6h19.199c12 0 22.801-7.1992 27.602-18l66-158.4c6-8.3984 8.3984-15.602-1.1992-26.398l64.801-87.602 1.1992-1.1992c2.3984-3.6016 3.6016-7.1992 6-12-4.8008-14.402-10.801-28.805-15.602-42.004zm-276-19.199h69.602c2.3984 0 3.6016 1.1992 3.6016 3.6016 0 2.3984-1.1992 3.6016-3.6016 3.6016h-69.602c-2.3984 0-3.6016-1.1992-3.6016-3.6016 0.003906-2.4023 1.2031-3.6016 3.6016-3.6016zm0 18h69.602c2.3984 0 3.6016 1.1992 3.6016 3.6016 0 2.3984-1.1992 3.6016-3.6016 3.6016h-69.602c-2.3984 0-3.6016-1.1992-3.6016-3.6016 0.003906-2.4023 1.2031-3.6016 3.6016-3.6016zm-30 267.6 6 33.602-14.398 18h1.1992c2.3984 0 4.8008 2.3984 4.8008 4.8008 0 2.3984-2.3984 4.8008-4.8008 4.8008h-32.398c-2.3984 0-4.8008-2.3984-4.8008-4.8008 0-2.3984 2.3984-4.8008 4.8008-4.8008h21.602l15.602-20.398-6-31.199h-27.602c-9.6016 0-18-8.3984-18-18 0-9.6016 8.3984-18 18-18h31.199c9.6016 0 18 8.3984 18 18-0.003906 8.3984-6.0039 15.598-13.203 17.996zm170.4 60h-32.398c-2.3984 0-4.8008-2.3984-4.8008-4.8008 0-2.3984 2.3984-4.8008 4.8008-4.8008h32.398c2.3984 0 4.8008 2.3984 4.8008 4.8008-1.2031 2.4023-2.4023 4.8008-4.8008 4.8008zm64.797-145.2c-1.1992 1.1992-2.3984 1.1992-3.6016 1.1992-1.1992 0-2.3984 0-3.6016-2.3984l-18-22.801-21.602-27.602-78-96c-2.3984-2.3984-6-4.8008-9.6016-4.8008h-74.398c-3.6016 0-7.1992 1.1992-9.6016 4.8008l-76.801 96-21.602 27.602-18 22.801c-1.1992 2.3984-4.8008 2.3984-7.1992 1.1992s-2.3984-4.8008-1.1992-7.1992l13.199-15.602 21.602-27.602 82.801-103.2c3.6016-4.8008 10.801-8.3984 16.801-8.3984h74.398c7.1992 0 13.199 2.3984 16.801 8.3984l82.801 103.2 21.602 27.602 13.199 15.602c2.4062 2.3984 2.4062 6 0.003907 7.1992z"/>
  <path d="m530.4 915.6h-31.199c-6 0-10.801 4.8008-10.801 10.801s4.8008 10.801 10.801 10.801h31.199c6 0 10.801-4.8008 10.801-10.801 0-6.0039-4.8008-10.801-10.801-10.801z"/>
  <path d="m730.8 598.8c-18 0-96 10.801-130.8 10.801-36 0-114-10.801-132-10.801s-43.199-6-43.199 25.199c0 32.398 24 52.801 40.801 52.801 16.801 0 78-40.801 104.4-40.801h60c25.199 0 86.398 40.801 104.4 40.801 16.801 0 40.801-20.398 40.801-52.801 0-32.398-26.398-25.199-44.398-25.199z"/>
  <path d="m418.8 716.4c2.3984 2.3984 4.8008 3.6016 8.3984 3.6016 2.3984 0 4.8008-1.1992 6-2.3984 4.8008-3.6016 4.8008-9.6016 2.3984-14.398-16.801-21.602-28.801-69.602-28.801-98.398 0-10.801 10.801-27.602 25.199-27.602 15.602 0 34.801 2.3984 55.199 6 30 3.6016 67.199 9.6016 112.8 9.6016 44.398 0 82.801-4.8008 112.8-9.6016 21.602-2.3984 39.602-6 55.199-6 14.398 0 25.199 16.801 25.199 27.602 0 28.801-12 76.801-28.801 98.398-3.6016 4.8008-2.3984 10.801 2.3984 14.398 1.207 2.3984 3.6055 2.3984 6.0078 2.3984 3.6016 0 6-1.1992 8.3984-3.6016 21.602-27.602 32.398-82.801 32.398-110.4 0-20.398-16.801-48-45.602-48-16.801 0-36 2.3984-58.801 6-31.199 3.6016-66 8.3984-110.4 8.3984-43.199 0-79.199-4.8008-110.4-8.3984-22.801-2.3984-42-6-58.801-6-27.602 0-44.398 27.602-45.602 48 2.4023 28.801 13.203 82.801 34.805 110.4z"/>
  <path d="m424.8 506.4c10.801 1.1992 22.801 3.6016 36 4.8008 42 6 93.602 13.199 139.2 13.199 46.801 0 91.199-6 130.8-12 15.602-2.3984 30-4.8008 44.398-6-4.8008-6-10.801-12-16.801-18-9.6016 1.1992-20.398 2.3984-31.199 4.8008-38.398 6-81.602 12-127.2 12-43.199 0-94.801-7.1992-135.6-13.199-7.1992-1.1992-15.602-2.3984-22.801-3.6016-5.9961 4.8008-11.996 10.801-16.797 18z"/>
  <path d="m600 489.6c46.801 0 91.199-6 130.8-12 4.8008-1.1992 9.6016-1.1992 14.398-2.3984-3.6016-3.6016-7.1992-6-10.801-9.6016-3.6016-2.3984-7.1992-6-10.801-8.3984-36-24-78-37.199-122.4-37.199-44.398 0-86.398 13.199-122.4 37.199-3.6016 2.3984-7.1992 4.8008-10.801 8.3984-3.6016 2.3984-7.1992 6-10.801 9.6016 4.8008 1.1992 9.6016 1.1992 14.398 2.3984 36.004 4.7969 80.402 12 128.4 12z"/>
  <path d="m400.8 544.8c3.6016-1.1992 7.1992-2.3984 10.801-2.3984 15.602 0 38.398 2.3984 63.602 6 36 4.8008 80.398 10.801 124.8 10.801 44.398 0 88.801-6 124.8-10.801 25.199-3.6016 48-6 63.602-6 3.6016 0 7.1992 1.1992 10.801 2.3984-3.6016-8.3984-8.3984-15.602-13.199-22.801-16.801 0-38.398 2.3984-63.602 6-34.801 4.8008-79.199 9.6016-122.4 9.6016-43.199 0-87.602-6-122.4-9.6016-25.199-3.6016-46.801-6-63.602-6-4.8086 7.1992-9.6094 14.398-13.207 22.801z"/>
  <path d="m362.4 666c3.6016 9.6016 6 19.199 9.6016 26.398 1.1992 2.3984 3.6016 4.8008 7.1992 4.8008 1.1992 0 2.3984 0 3.6016-1.1992 3.6016-1.1992 6-6 3.6016-10.801-4.8008-12-10.801-28.801-15.602-48-2.4023 10.801-6 19.199-8.4023 28.801z"/>
  <path d="m966 613.2c-56.398-129.6-178.8-436.8-366-436.8s-309.6 307.2-366 436.8c-56.398 129.6-184.8 272.4-184.8 331.2 0 58.801 26.398 79.199 82.801 79.199 45.602 0 121.2-30 183.6-38.398 8.3984-1.1992 9.6016-13.199 1.1992-15.602-44.398-10.801-85.199-1.1992-99.602-1.1992-19.199 0-36-33.602 0-57.602 38.398-28.801 85.199-120 117.6-206.4 6-16.801 12-34.801 18-50.398 1.1992-3.6016 2.3984-8.3984 3.6016-12 3.6016-10.801 6-21.602 9.6016-32.398 1.1992-4.8008 2.3984-8.3984 3.6016-12 0-1.1992 0-2.3984 1.1992-3.6016 6-25.199 14.398-48 27.602-69.602 3.6016-7.1992 8.3984-13.199 13.199-20.398 4.8008-6 9.6016-13.199 15.602-18 3.6016-4.8008 8.3984-8.3984 13.199-13.199 6-6 13.199-12 20.398-18 39.602-30 88.801-48 141.6-48s102 18 141.6 48c7.1992 6 14.398 10.801 20.398 18 4.8008 3.6016 8.3984 8.3984 12 12 6 6 10.801 12 15.602 19.199 4.8008 7.1992 9.6016 13.199 14.398 20.398 12 21.602 21.602 44.398 27.602 69.602 0 1.1992 0 2.3984 1.1992 3.6016 1.1992 3.6016 1.1992 7.1992 2.3984 10.801 2.3984 9.6016 6 20.398 9.6016 32.398 0 1.1992 1.1992 2.3984 1.1992 3.6016 6 18 12 36 19.199 55.199 32.398 87.602 80.398 182.4 120 211.2 36 24 19.199 57.602 0 57.602-14.398 0-56.398-9.6016-99.602 1.1992-13.203 2.3984-12.004 14.398-3.6055 15.598 62.398 8.3984 138 38.398 183.6 38.398 56.398 0 82.801-20.398 82.801-79.199 0-58.797-128.4-201.6-184.8-331.2z"/>
  <path d="m817.2 696c1.1992 0 2.3984 1.1992 3.6016 1.1992 3.6016 0 6-2.3984 7.1992-4.8008 3.6016-7.1992 7.1992-16.801 9.6016-27.602-3.6016-9.6016-6-18-8.3984-27.602-4.8008 19.199-10.801 36-15.602 48-2.4023 4.8047 0 9.6055 3.5977 10.805z"/>
 </g>
</svg>
