<?xml version="1.0" encoding="UTF-8"?>
<svg width="1200pt" height="1200pt" version="1.1" viewBox="0 0 1200 1200" xmlns="http://www.w3.org/2000/svg">
 <g>
  <path d="m545.7 436.92c0-9.7422-3.1797-20.195-8.5938-27.434-5.4102-7.2461-13.043-12.742-21.875-15.504-4.0938-1.2734-8.4375-1.9688-12.949-1.9688-8.6289 0-14.723 1.332-21.48 5.6758-6.7578 4.3438-13.285 9.9102-16.789 17.195-2.7344 5.6875-5.1719 13.836-5.1719 20.578 0 6.7305 1.5352 13.105 4.2617 18.793 3.5273 7.3438 7.1992 12.277 14.016 16.621 6.7305 4.2852 16.57 6.3477 25.152 6.3477 8.7461 0 16.906-0.89844 23.734-5.3516 5.9414-3.875 10.234-8.0508 13.68-14.281 3.4375-6.2383 6.0156-13.055 6.0156-20.672z"/>
  <path d="m604.46 549.62c-14.027-0.46875-43.188-0.57422-58.273-2.5664-13.598-1.8008-10.234 9.5039-10.234 9.5039s14.809 16.523 49.766 15.984c51.949-0.79297 79.789-14.387 77.039-25.922-1.1172-4.6211-23.691 2.1836-58.297 3z"/>
  <path d="m544.66 516.25c0.85156 4.4414 2.6406 7.043 9.4922 8.4492 2.3281 0.48047 7.332 0.011719 10.141-2.375 5.5781-4.7383 9.457-13.559 15.348-13.273 6.3125 0.30078 9.9375 6.3477 12.516 15.277 1.0938 3.793 19.738 4.9688 21.684 0.66016 8.5195-15.996 13.727-16.105 25.633-3.2539 1.3789 1.4883 11.137 1.4766 12.602 0.81641 5.4727-2.2578 7.5586-8.9883 7.3555-13.188-0.50391-10.754-4.7383-24.109-13.906-31.344-10.512-8.293-24.574-12.805-44.879-12.648-12.719 0.097656-31.801 4.6562-43.402 15.875-14.336 17.828-12.582 35.004-12.582 35.004z"/>
  <path d="m720.86 396.36c-5.6875-2.7344-13.836-5.1719-20.578-5.1719-6.7305 0-13.105 1.5234-18.793 4.2617-7.3438 3.5273-12.277 7.1992-16.621 14.016-4.2852 6.7305-6.3477 16.57-6.3477 25.152 0 8.7461 0.89844 16.906 5.3516 23.734 3.875 5.9414 8.0508 10.234 14.281 13.68 6.2266 3.4453 13.043 6.0234 20.664 6.0234 9.7422 0 20.195-3.1797 27.434-8.5938 7.2344-5.4102 12.742-13.031 15.504-21.875 1.2734-4.0938 1.9688-8.4375 1.9688-12.949 0-8.6289-1.332-14.723-5.6758-21.48-4.3242-6.7656-9.9023-13.281-17.188-16.797z"/>
  <path d="m984.39 592.19c-2.1602-1.4297-4.1992-2.4258-6.2148-3.3008 13.512-150.55 25.883-287.29 30.91-335.88 0.63672-10.078 3.875-23.387 4.1289-26.891 1.0781-15.434 16.477-19.43 16.715-31.789 0.69922-35.531-21.512-131.47-35.855-134.33-15.457 3.9375-60.434 90.648-61.234 127.33-0.52734 24.18 12.828 12.625 11.484 35.734-9 47.016-16.883 185.75-21.035 246.67-2.0508 30.84-4.2461 64.02-6.4922 98.461-43.285-44.629-38.172-154.74-26.773-184.59 17.207-45.086 19.57-78.07-7.1289-118.49-32.328-48.949-75.973-53.617-144.93-24.887-76.836-16.105-179.45-12.949-282.21 4.6445-38.219-11.387-75-29.113-110.96-1.2969-49.738 38.484-58.836 69-45.59 101.8 5.2695 13.043 12.66 29.27 15.445 48.227 2.9648 59.328 0.76953 117.14-5.8086 138.96-9.3008 24.625-18.383 61.332-28.824 77.102-73.234 110.53-103.04 296.28-34.547 343.49 10.031 6.9102 33.949 8.2812 41.578 4.9219 13.895-6.0977 18.527-35.941 30.996-41.305 3.3945-1.4648 9.3477-0.98438 8.4258 15.047-4.1641 52.199-16.57 139.02 11.688 180.82 5.8672 16.402 217.46 22.355 222.83-1.6328 2.0625-16.609 1.4414-25.523 14.41-39.312 20.723-4.8945 50.902-6.9727 65.484-1.6211 21.562 13.668 4.1406 21.926 19.379 40.906 10.715 10.297 171.23 19.129 179.61-3 18.301-62.773 23.293-128.23 20.543-150.47-7.6562-61.98-5.0156-112.03 10.836-124.92 6.8633-5.5781 16.68-1.3438 28.32 4.2734-9.4336 149.68-16.859 272.07-16.68 277.07 0.58984 16.117 9.8633 25.199 11.785 25.703 1.9062 0.51563 15.312 0.48047 20.438-0.34766s13.547-14.41 14.965-26.113c1.2227-3.9258 11.855-120.29 25.055-267.11 62.773-27.207 90.508-213.29 29.27-253.88zm-133.57-115.22c2.5664 68.09 16.152 95.578 8.5781 136.27-4.4414 23.867-55.523 67.906-104.72 87.875-43.801 17.773-71.762 50.699-106.79 65.062s-88.465 15.434-142.38 47.629c-60.91 36.371-122.07 62.941-155.27-11.809-11.594-26.113-16.691-62.27-17.352-88.188-0.79297-30.648-3.2031-67.824 2.9766-101.83 2.4727-13.598 10.379-45.875 12.73-71.902 0 0 4.2109-130.13 3.6367-146.87s-6.3945-21.816-6.4062-41.566c0-19.754 29.113-37.176 57.383-59.473 20.941-16.512 41.531-8.0273 62.902-16.367 17.855-10.211 88.836-15.383 131.04-16.02 63.961-0.97266 125.09 6.2773 157.64 8.3047 43.176 2.6875 96.047 18.215 106.45 57.938 2.9141 11.137-3.5625 34.859-5.1367 65.16-1.5195 28.996-6.2031 61.562-5.2891 85.781zm115.49-273.41c10.656 0.21484 17.734 1.1758 28.117 2.7617 0.20312 5.3398-1.4648 11.578-1.8945 18.359-10.836-2.6523-16.402-2.7969-28.547-2.3281-0.003906 0-0.20703-12.262 2.3242-18.793zm2.0859 278.43c-7.7773 80.125-45.109 449.73-55.094 612.06-1.5234 24.77-10.645 23.879-10.812 6.2031-0.070313-7.1875 38.723-566.06 39.527-579.57 9.2656-156.82 17.172-270.95 20.809-284.84 10.441-1.1055 17.41-1.3789 27.086 2.1719 0-0.011719-14.301 127.79-21.516 243.98z"/>
  <path d="m775.8 348.43c-33.168-18.383-102.88-20.027-169.51-21.77-43.969-1.1406-173.39-6.2891-203.11 50.699-52.621 80.52-23.242 161.53-23.242 161.53 15.422 53.438 44.004 69.996 95.172 81.816 18.625 4.2969 66.359 25.031 136.31 21.551 59.641-2.9648 79.367-3.1328 140.59-31.262 56.184-25.801 75.66-60.84 75.863-129.6 0.15234-50.012-18.902-114.58-52.07-132.96zm-34.211 224.34c-53.484 28.176-94.895 31.547-139.63 30.434-70.621-1.7656-109.92-7.7031-145.25-25.32-30.023-22.211-45.203-43.164-50.242-80.23 0 0-14.363-56.941 12.098-99.84 36.348-46.078 96.457-39.707 153.96-41.219 63.805-1.6797 148.13 1.1875 178.56 16.598 30.434 15.406 47.93 43.934 45.648 88.523-3.1016 60.582-11.203 87.906-55.145 111.05z"/>
  <path d="m615.76 303.65c32.566 0.19141 111.46 9.457 137.03 12.469 6.1445 0.39453 11.785 7.4141 14.438 5.1367 4.7148-4.043 3.6602-14.773 2.8789-20.16-0.10937-0.74219-10.055-0.71875-16.391 0.86328-15.73 3.9258-65.723-13.621-136.77-12.527-120.67 1.8359-160.56 11.641-154.4 23.184 2.457 4.6055 72.789-7.4531 153.21-8.9648z"/>
 </g>
</svg>
