<?xml version="1.0" encoding="UTF-8"?>
<svg width="1200pt" height="1200pt" version="1.1" viewBox="0 0 1200 1200" xmlns="http://www.w3.org/2000/svg">
 <g>
  <path d="m552 108h-24v144h144v-144zm96 120h-96v-96h96z"/>
  <path d="m600 216c19.883 0 36-16.117 36-36s-16.117-36-36-36-36 16.117-36 36 16.117 36 36 36zm0-48c6.625 0 12 5.3867 12 12s-5.375 12-12 12-12-5.3867-12-12 5.375-12 12-12z"/>
  <path d="m600 768c-26.508 0-48 21.48-48 47.988 0 26.508 21.492 48.012 48 48.012s48-21.504 48-48.012c0-26.508-21.492-47.988-48-47.988zm0 72c-13.234 0-24-10.766-24-24.012 0-13.234 10.766-23.988 24-23.988s24 10.754 24 23.988c0 13.246-10.766 24.012-24 24.012z"/>
  <path d="m736.71 204c-23.16 0-42 18.84-42 42s18.84 42 42 42 42-18.84 42-42-18.852-42-42-42zm0 60c-9.9258 0-18-8.0742-18-18s8.0742-18 18-18c9.9258 0 18 8.0742 18 18s-8.0742 18-18 18z"/>
  <path d="m1056 1032h-48v-12h18v-24.613c17.004-2.8672 30-17.578 30-35.398 0-15.996-10.512-29.398-24.949-34.078l24.949-49.91v-72h-24v-168h24v-288h-132v24h-24v-72c0-165.68-134.32-300-300-300-165.7 0-300 134.32-300 300v72h-24v-24h-132v288h24v168h-24v72l24.949 49.906c-14.438 4.6836-24.949 18.086-24.949 34.082 0 17.82 12.996 32.531 30 35.398v24.613h18v12h-48l-24 90v42h228v-48l-4.5469-15.91c2.8438-6.1328 4.5469-12.891 4.5469-20.09v-108c0-26.473-21.527-48-48-48-8.7734 0-16.906 2.543-24 6.6836v-366.68h24v336h33.887l4.0547 9.457 36 84 6.2422 14.543h126.02c-1.3438 3.7578-2.207 7.7539-2.207 11.988 0 19.883 16.117 36.012 36 36.012 0.035156 0 0.085938-0.011719 0.12109-0.011719h17.879v12.012h-54l-24 90v42h240v-48l-24-84h-54v-12.012h17.879c0.035156 0 0.085938 0.011719 0.12109 0.011719 19.871 0 36-16.129 36-36.012 0-4.2344-0.86328-8.2305-2.207-11.988h126.02l6.2383-14.543 36-84 4.0586-9.457h33.887v-336h24v366.68c-7.0938-4.1406-15.227-6.6836-24-6.6836-26.473 0-48 21.527-48 48v108c0 7.8359 2.0742 15.145 5.4102 21.695l-5.4102 20.305v42h228v-48zm-108 0v-12h36v59.988h-36zm0-60v-24h38.207c-0.66016 1.8359-1.2227 3.7305-1.5703 5.6992-0.39844 2.0391-0.63672 4.1289-0.63672 6.2891 0 2.1953 0.26562 4.2969 0.64844 6.3828 0.10937 0.60156 0.23828 1.1875 0.37109 1.7773 0.38281 1.6562 0.875 3.2539 1.4883 4.8008 0.3125 0.82812 0.69531 1.6328 1.0664 2.4258 0.5625 1.1641 1.1641 2.293 1.8359 3.3828 0.58984 0.94922 1.2109 1.8359 1.8711 2.7344 0.35938 0.46875 0.75781 0.92578 1.1406 1.3672 1.7031 2.0625 3.6016 3.9102 5.7227 5.543 0 0 0 0.011718 0.011719 0.011718 1.2109 0.9375 2.4727 1.7773 3.8047 2.5547 0.011718 0 0.023437 0.011719 0.035156 0.023438v4.9805l-17.996 0.003906h-36zm84-12.012c0 6.625-5.375 12.012-12 12.012-1.6094 0-3.1211-0.33594-4.5234-0.91016l-0.75781-0.43359c-0.48047-0.25391-0.875-0.60156-1.3086-0.89844-1.0547-0.70703-1.9453-1.5469-2.7227-2.4844-0.49219-0.63672-0.98438-1.2734-1.3438-2.0039-0.21484-0.40625-0.37109-0.83984-0.53906-1.2734-0.45703-1.2734-0.80469-2.5938-0.80469-4.0078 0-1.1172 0.26562-2.3984 0.81641-3.9609l0.38281-1.0938c1.9336-4.0664 6.0117-6.9336 10.801-6.9336 6.625 0 12 5.375 12 11.988zm-158.43-695.99h-63.086v-36h55.922c3.168 11.711 5.5586 23.734 7.1641 36zm-237.57-237.57c43.812 5.7344 84.445 21.73 119.33 45.574h-119.33zm-72 0v45.574h-119.33c34.883-23.844 75.516-39.84 119.33-45.574zm-230.41 201.57h139.92v36h-147.09c1.6055-12.266 3.9961-24.289 7.1641-36zm-9.2891 60h173.21v-84h-156.25c15.672-42.109 41.328-79.379 74.102-108.94 1.4141 0.60156 2.9844 0.9375 4.6406 0.9375h168v-71.699c3.9844-0.16797 7.9805-0.30078 12-0.30078s8.0156 0.13281 12 0.30078v71.699h173.71c32.27 29.398 57.539 66.348 73.043 108h-72.254v84h89.207c0.16016 3.9844 0.29297 7.9805 0.29297 12h-552c0-4.0195 0.13281-8.0156 0.30078-12zm-0.30078 36h552v24h-552zm-72 648v23.988h-54v-4.9805c0.011719-0.011718 0.023438-0.023437 0.035156-0.023437 1.332-0.76953 2.6055-1.6211 3.8047-2.5547 0.011718 0 0.011718-0.011719 0.011718-0.011719 2.125-1.6328 4.0078-3.4805 5.7227-5.5312 0.38281-0.45703 0.76953-0.89844 1.1406-1.3789 0.67188-0.88672 1.2852-1.7773 1.8711-2.7344 0.68359-1.0938 1.2734-2.2305 1.8359-3.3828 0.37109-0.79297 0.74219-1.5859 1.0664-2.4102 0.61328-1.5586 1.1055-3.168 1.5-4.8125 0.13281-0.60156 0.25391-1.1875 0.35938-1.7773 0.38672-2.0938 0.65234-4.207 0.65234-6.4023 0-2.1602-0.23828-4.2461-0.63672-6.2891-0.34766-1.9688-0.91016-3.8516-1.5703-5.6992h38.207zm-84-12.012c0-6.6133 5.375-11.988 12-11.988 4.7891 0 8.8672 2.8672 10.789 6.9375l0.38281 1.0938c0.55078 1.5586 0.81641 2.8438 0.81641 3.9609 0 1.4141-0.34766 2.7344-0.80469 3.9961-0.16797 0.43359-0.32422 0.86328-0.53906 1.2734-0.35938 0.73047-0.85156 1.3672-1.3555 2.0039-0.75781 0.9375-1.6562 1.7773-2.6992 2.4844-0.44531 0.30078-0.83984 0.66016-1.3203 0.89844l-0.75781 0.43359c-1.3906 0.58203-2.9023 0.91797-4.5117 0.91797-6.625 0-12-5.3867-12-12.012zm48 60.012h36v59.988h-36zm108 120h-180v-14.855l18.434-69.145h29.566v47.988h66.434c0.37109 0.64844 0.83984 1.2461 1.2461 1.8594 0.37109 0.60156 0.75781 1.1758 1.1641 1.7539 1.5703 2.2188 3.2539 4.332 5.1719 6.2539 0.12109 0.12109 0.25391 0.21484 0.35938 0.32422 1.8242 1.8008 3.8398 3.4062 5.9531 4.9062 0.57422 0.40625 1.1523 0.80469 1.7539 1.1875 2.293 1.4883 4.6797 2.8438 7.2109 3.9258 0.097656 0.035156 0.17969 0.046875 0.25391 0.085937 2.4727 1.043 5.0898 1.8008 7.7539 2.4102 0.69531 0.15625 1.3906 0.30078 2.1016 0.43359 2.7891 0.51172 5.6445 0.87109 8.5977 0.87109s5.7969-0.35938 8.6172-0.86328c0.68359-0.13281 1.3555-0.25391 2.0391-0.42188 2.7344-0.625 5.3867-1.3906 7.9219-2.4609 0.16797-0.070312 0.28906-0.15625 0.44531-0.22656 1.7148-0.74219 3.3828-1.5469 4.9805-2.4727zm-24-192c13.199 0 24 10.801 24 24v108c0 13.199-10.801 24-24 24s-24-10.801-24-24v-108c0-13.199 10.801-24 24-24zm-48-24h-57.168l-26.832-53.664v-42.336h84zm0-120h-60v-168h60zm0-192h-84v-240h84zm24-72v-144h24v144zm84 360h34.715l25.488 84h-24.203zm300 84v-84h120.2l-25.488 84zm-33.793 47.988h-52.414c1.332-3.7695 2.207-7.7656 2.207-12s-0.86328-8.2305-2.207-11.988h52.402c-1.332 3.7578-2.1953 7.7539-2.1953 11.988s0.86328 8.2305 2.207 12zm9.793-47.988h-72v-84h72zm-96 0h-94.715l-25.488-84h120.2zm12 35.988c0 6.6016-5.3398 11.965-11.941 12h-0.058594c-0.011719 0-0.023438 0.011719-0.035156 0.011719-6.6016-0.023438-11.965-5.3984-11.965-12.012s5.375-11.988 12-11.988 12 5.375 12 11.988zm125.89 72.012 18.109 63.359v20.641h-192v-14.855l18.434-69.145h35.566v47.988h84v-47.988zm-59.891-24v47.988h-36v-60h36zm54-48.012c0 6.6133-5.3633 11.988-11.965 12.012-0.011718 0-0.023437-0.011719-0.035156-0.011719h-0.058594c-6.6016-0.035156-11.941-5.3984-11.941-12 0-6.6133 5.375-11.988 12-11.988s12 5.375 12 11.988zm132-35.988h-24.203l25.488-84h34.715zm72-108h-552v-504h552zm24-336v-144h24v144zm48 24v-192h84v240h-84zm0 72h60v168h-60zm0 192h84v42.336l-26.832 53.664h-57.168zm-72 144c0-13.199 10.801-24 24-24s24 10.801 24 24v108c0 13.199-10.801 24-24 24s-24-10.801-24-24zm180 168h-180v-14.855l0.82812-3.1211c1.1758 0.66016 2.4258 1.1875 3.6602 1.7539 0.39453 0.17969 0.76953 0.38281 1.1875 0.5625 2.5078 1.043 5.1367 1.8242 7.8359 2.4375 0.61328 0.13281 1.2344 0.25391 1.8477 0.35938 2.8203 0.50391 5.6758 0.86328 8.6406 0.86328 2.9531 0 5.8086-0.35938 8.6172-0.86328 0.70703-0.13281 1.4023-0.27734 2.1016-0.43359 2.6641-0.61328 5.2695-1.3672 7.7539-2.4102 0.085938-0.035157 0.16797-0.046875 0.25391-0.085938 2.5312-1.0781 4.9062-2.4375 7.2109-3.9258 0.60156-0.37109 1.1758-0.76953 1.7539-1.1875 2.1133-1.5 4.1289-3.1094 5.9531-4.9062 0.12109-0.12109 0.25391-0.21484 0.35938-0.32422 1.9062-1.9219 3.6016-4.043 5.1719-6.2539 0.40625-0.57422 0.78125-1.1523 1.1641-1.7539 0.40625-0.625 0.875-1.2227 1.2461-1.8594l6.4141 0.003906h60v-48h29.891l18.109 63.359z"/>
  <path d="m456 444h288v-60h-288zm24-36h240v12h-240z"/>
  <path d="m696 456h-144v6l-48-6-48 6v48l48 6 48-6v6h144l24-6h24v-48h-24zm-146.98 30.191-45.023 5.6172-24-3v-5.6289l24-3 45.023 5.6289 1.4766 0.19141zm165.16 0.52734-21.133 5.2812h-117.05v-12h117.05l21.133 5.2812 2.8672 0.71875z"/>
  <path d="m648 534v-6h-144l-24 6h-24v48h24l24 6h144v-6l48 6 48-6v-48l-48-6zm-24 27.191v2.8086h-117.05l-21.133-5.2812-2.8672-0.71875 2.8672-0.71875 21.133-5.2812h117.05zm96-0.38281-24 3-45.023-5.6289-1.4766-0.17969 1.4766-0.19141 45.023-5.6172 24 3z"/>
  <path d="m552 756h96v-156h-96zm24-132h48v108h-48z"/>
  <path d="m811.8 768-21.098 28.129v39.758l21.098 28.113h29.809l21.098-28.129v-39.758l-21.086-28.113zm26.914 59.867-9.0938 12.133h-5.8203l-9.0977-12.133v-23.746l9.0977-12.121h5.8086l9.0977 12.133-0.003906 23.734z"/>
  <path d="m456 732h-50.566c-6.6367 0-12 5.3633-12 12s5.3633 12 12 12h50.566c6.6367 0 12-5.3633 12-12s-5.3633-12-12-12z"/>
  <path d="m300 1063.3c6.6367 0 12-5.3633 12-12v-50.578c0-6.6367-5.3633-12-12-12s-12 5.3633-12 12v50.578c0 6.6367 5.3633 12 12 12z"/>
  <path d="m900 1063.3c6.6367 0 12-5.3633 12-12v-50.578c0-6.6367-5.3633-12-12-12s-12 5.3633-12 12v50.578c0 6.6367 5.3633 12 12 12z"/>
  <path d="m456 696h-50.566c-6.6367 0-12 5.3633-12 12s5.3633 12 12 12h50.566c6.6367 0 12-5.3633 12-12s-5.3633-12-12-12z"/>
  <path d="m456 660h-50.566c-6.6367 0-12 5.3633-12 12s5.3633 12 12 12h50.566c6.6367 0 12-5.3633 12-12s-5.3633-12-12-12z"/>
  <path d="m456 624h-50.566c-6.6367 0-12 5.3633-12 12s5.3633 12 12 12h50.566c6.6367 0 12-5.3633 12-12s-5.3633-12-12-12z"/>
 </g>
</svg>
