<?xml version="1.0" encoding="UTF-8"?>
<svg width="1200pt" height="1200pt" version="1.1" viewBox="0 0 1200 1200" xmlns="http://www.w3.org/2000/svg">
 <path d="m1184.5 692.04h-30.539v-312.6c0-0.35938 0-0.71875-0.058594-1.0781v-4.0781c0-13.801-10.441-24.961-23.281-24.961s-23.281 11.281-23.281 25.078v126.18h0.058594v191.52h-30.66c-8.5195 0-15.48 6.8984-15.48 15.48v55.441h-22.621v-55.5c0-8.5195-6.8984-15.48-15.48-15.48h-30.66l0.003906-220.38c0-2.3398-0.53906-4.5586-1.5-6.6016-3.2383-9.5391-11.82-16.32-21.84-16.32-10.199 0-18.84 7.0781-21.961 16.859-0.78125 1.8594-1.2617 3.8984-1.2617 6.1211v0.60156c0 0.53906-0.058593 1.0195-0.058593 1.5586v126.18h0.058593v92.102h-30.66c-8.5195 0-15.48 6.8984-15.48 15.48v55.441h-112.38v-55.5c0-8.5195-6.8984-15.48-15.48-15.48h-80.34l-22.141-531.36v-0.66016c-0.058593-0.78125-0.12109-1.6211-0.30078-2.3984l-24.477-122.29c-1.4414-7.1992-7.8008-12.422-15.18-12.422l-58.918 0.003907c-7.3789 0-13.738 5.2188-15.18 12.422l-24.422 122.22c-0.17969 0.78125-0.23828 1.5586-0.30078 2.3984l-22.199 532.02h-80.34c-8.5195 0-15.48 6.8984-15.48 15.48v55.5h-112.32v-55.5c0-8.5195-6.8984-15.48-15.48-15.48h-30.66v-220.38c0-2.2812-0.48047-4.5-1.4414-6.4805-3.2383-9.6016-11.82-16.5-21.898-16.5-10.199 0-18.781 6.9609-21.961 16.738-0.83984 1.9219-1.3203 4.0195-1.3203 6.2383v220.38l-30.598 0.003906c-8.5195 0-15.48 6.8984-15.48 15.48v55.441h-22.621v-55.5c0-8.5195-6.8984-15.48-15.48-15.48h-30.66v-312.6c0-0.60156-0.058593-1.1992-0.12109-1.7383l0.003906-3.2422c0-13.801-10.441-25.078-23.281-25.078-12.898 0-23.281 11.16-23.281 24.961v126.3h0.058594v191.52h-30.656c-8.5195 0-15.48 6.8984-15.48 15.48v313.86c0 8.5195 6.8984 15.48 15.48 15.48h30.66v2.9414c0 8.5195 6.8984 15.48 15.48 15.48h15.66c8.5195 0 15.48-6.8984 15.48-15.48v-2.9414h30.66c8.5195 0 15.48-6.8984 15.48-15.48l-0.003906-25.441 273.78 39.301v10.801c0 8.5195 6.8984 15.48 15.48 15.48h10.141v99.898c0 8.5195 6.8984 15.48 15.48 15.48h84.84c8.5195 0 15.48-6.8984 15.48-15.48v-56.52h91.801v56.52c0 8.5195 6.8984 15.48 15.48 15.48h84.84c8.5195 0 15.48-6.8984 15.48-15.48v-99.898h10.141c8.5195 0 15.48-6.8984 15.48-15.48v-10.801l273.78-39.301v25.379c0 8.5195 6.8984 15.48 15.48 15.48h30.66v2.9414c0 8.5195 6.8984 15.48 15.48 15.48h15.66c8.5195 0 15.48-6.8984 15.48-15.48v-2.9414h30.66c8.5195 0 15.48-6.8984 15.48-15.48v-313.86c-0.007812-8.5195-6.9062-15.48-15.488-15.48zm-1092.3 298.2h-45.66v-251.64h45.66zm115.86-251.64h45.66v22.621h-45.66zm204.66 249.72-112.32-16.262v-85.141c0-8.5195-6.8984-15.48-15.48-15.48h-15.66c-8.5195 0-15.48 6.8984-15.48 15.48v78.539l-114.9-16.5v-139.32h273.78v178.68zm94.801 142.08h-22.621v-68.762h22.621zm0-115.38h-47.398v-242.7c0-1.6797-0.30078-3.4219-0.83984-4.9805v-28.738h48.238zm88.5-945.42h7.9805l13.738 68.762h-35.461zm-19.738 115.38h47.52l14.398 345.84h-76.379zm0.41797 873.42h-22.621v-38.039l0.003906-235.56h22.621zm69.242-37.977v38.039h-22.562v-273.6h22.621v235.56zm0.058593-282.24h-91.859v-22.379l5.7617-138.48h80.281l5.7617 138.48-0.003906 22.379zm69.18 392.22h-22.621v-68.699h22.621zm25.621-363.06c-0.53906 1.6211-0.83984 3.3008-0.83984 4.9805v242.64h-47.398v-276.42h48.238zm205.56-28.738h45.66v22.621h-45.66zm114.9 210.24-117.48 16.98v-78.84c0-8.5195-6.8984-15.48-15.48-15.48h-15.66c-8.5195 0-15.48 6.8984-15.48 15.48v85.5l-109.8 15.781v-178.74h273.78v139.32zm92.277 41.398h-45.66v-251.64h45.66z"/>
</svg>
