<?xml version="1.0" encoding="UTF-8"?>
<svg width="1200pt" height="1200pt" version="1.1" viewBox="0 0 1200 1200" xmlns="http://www.w3.org/2000/svg">
 <path d="m1192.1 493.38h-45.539c-2.2812 0-4.1406-1.8008-4.1992-4.0195l-18.66-429.24c-0.17969-4.1992-3.6602-7.5-7.8594-7.5h-57.84c-4.1992 0-7.6797 3.3008-7.8594 7.5l-18.785 433.86c-0.058594 1.5586-0.96094 2.8789-2.3398 3.6016l-44.34 22.199c-2.6406 1.3203-4.3203 4.0195-4.3203 7.0195v25.801c0 1.3203-0.66016 2.5781-1.6797 3.3594-0.71875 0.53906-1.6211 0.83984-2.5195 0.83984-0.42188 0-0.83984-0.058593-1.1992-0.17969l-161.52-48.539c-1.1992-0.35938-2.1602-1.1992-2.6406-2.3398-18-40.199-46.98-74.281-83.82-98.699-37.801-25.02-81.719-38.219-127.14-38.219s-89.34 13.199-127.14 38.219c-36.898 24.418-65.879 58.559-83.879 98.758-0.48047 1.1406-1.4414 1.9805-2.6406 2.3398l-161.52 48.422c-0.42188 0.12109-0.78125 0.17969-1.1992 0.17969-0.89844 0-1.8008-0.30078-2.5195-0.83984-1.0781-0.78125-1.6797-2.0391-1.6797-3.3594v-25.859c0-2.9414-1.6797-5.6992-4.3203-7.0195l-44.34-22.199c-1.3789-0.66016-2.2812-2.0391-2.3398-3.6016l-18.898-433.8c-0.17969-4.1992-3.6602-7.5-7.8594-7.5h-57.84c-4.1992 0-7.6797 3.3008-7.8594 7.5l-18.664 429.3c-0.12109 2.2812-1.9805 4.0195-4.1992 4.0195h-45.121c-4.3203 0-7.8594 3.5391-7.8594 7.8594v197.58c0 4.3203 3.5391 7.8594 7.8594 7.8594h45.121c2.2812 0 4.1406 1.8008 4.1992 4.0195l18.66 429.24c0.17969 4.1992 3.6602 7.5 7.8594 7.5h57.84c4.1992 0 7.6797-3.3008 7.8594-7.5l18.84-433.92c0.058594-1.5586 0.96094-2.8789 2.3398-3.6016l44.34-22.199c2.6406-1.3203 4.3203-4.0195 4.3203-7.0195v-25.793c0-1.3203 0.66016-2.5781 1.6797-3.3594 0.71875-0.53906 1.6211-0.83984 2.5195-0.83984 0.42188 0 0.83984 0.058593 1.1992 0.17969l161.52 48.422c1.1992 0.35938 2.1602 1.1992 2.6406 2.3398 18 40.199 46.98 74.281 83.82 98.699 37.801 25.02 81.719 38.219 127.14 38.219 45.359 0 89.34-13.199 127.14-38.219 36.84-24.359 65.82-58.5 83.82-98.699 0.48047-1.1406 1.4414-1.9805 2.6406-2.3398l161.58-48.48c0.42188-0.12109 0.78125-0.17969 1.1992-0.17969 0.89844 0 1.8008 0.30078 2.5195 0.83984 1.0781 0.78125 1.6797 2.0391 1.6797 3.3594v25.859c0 2.9414 1.6797 5.6992 4.3203 7.0195l44.34 22.199c1.3789 0.66016 2.2812 2.0391 2.3398 3.6016l18.84 433.92c0.17969 4.1992 3.6602 7.5 7.8594 7.5h57.84c4.1992 0 7.6797-3.3008 7.8594-7.5l18.66-429.24c0.12109-2.2812 1.9805-4.0195 4.1992-4.0195h45.539c4.3203 0 7.8594-3.5391 7.8594-7.8594l0.007812-197.59c0-4.3789-3.5391-7.8594-7.8594-7.8594zm-1136.2 181.2c0.058593 1.1406-0.35938 2.2812-1.1406 3.1211-0.78125 0.83984-1.9219 1.3203-3.0586 1.3203h-19.562c-2.3398 0-4.1992-1.9219-4.1992-4.1992v-149.58c0-2.3398 1.9219-4.1992 4.1992-4.1992h19.559c1.1406 0 2.2812 0.48047 3.0586 1.3203 0.78125 0.83984 1.1992 1.9805 1.1406 3.1211l-3.2383 74.281v0.66016zm67.078 441.18c-0.12109 2.2812-1.9805 4.0195-4.1992 4.0195h-11.82c-2.2812 0-4.1406-1.8008-4.1992-4.0195l-21.66-497.52c-0.058594-1.1406 0.35937-2.2812 1.1406-3.1211s1.9219-1.3203 3.0586-1.3203h55.141c1.1406 0 2.2812 0.48047 3.0586 1.3203 0.78125 0.83984 1.1992 1.9805 1.1406 3.1211zm20.52-530.88c-0.78125 0.83984-1.9219 1.3203-3.0586 1.3203h-55.141c-1.1406 0-2.2812-0.48047-3.0586-1.3203-0.78125-0.83984-1.1992-1.9805-1.1406-3.1211l21.66-497.52c0.12109-2.2812 1.9805-4.0195 4.1992-4.0195h11.82c2.2812 0 4.1406 1.8008 4.1992 4.0195l21.66 497.52c0.0625 1.1406-0.35938 2.2812-1.1406 3.1211zm48.363 73.562c0 1.6211-0.89844 3.0586-2.3398 3.7812l-13.141 6.6016c-0.60156 0.30078-1.2617 0.42188-1.8594 0.42188-0.83984 0-1.6211-0.23828-2.2812-0.66016-1.2617-0.83984-1.9805-2.2188-1.9219-3.7188l2.8203-64.5v-0.66016l-2.8203-64.508c-0.058594-1.5 0.66016-2.9414 1.9219-3.7188 0.66016-0.42188 1.5-0.66016 2.2812-0.66016 0.66016 0 1.3203 0.12109 1.8594 0.42188l13.141 6.6016c1.4414 0.71875 2.3398 2.1602 2.3398 3.7812zm92.758-31.68c0 1.3203-0.66016 2.5781-1.6797 3.3594-0.71875 0.53906-1.6211 0.83984-2.5195 0.83984-0.42188 0-0.83984-0.058594-1.1992-0.17969l-56.699-16.98c-1.8008-0.53906-3-2.1602-3-4.0195v-19.559c0-1.8594 1.1992-3.4805 3-4.0195l56.699-16.98c0.42188-0.12109 0.78125-0.17969 1.1992-0.17969 0.89844 0 1.8008 0.30078 2.5195 0.83984 1.0781 0.78125 1.6797 2.0391 1.6797 3.3594zm89.34 30.297c-0.78125 0.71875-1.8008 1.1406-2.8789 1.1406-0.42188 0-0.83984-0.058594-1.1992-0.17969l-54.539-16.379c-1.8008-0.53906-3-2.1602-3-4.0195v-19.559c0-2.3398 1.9219-4.1992 4.1992-4.1992h48.961c2.2188 0 4.0195 1.7383 4.1992 3.8984 0.83984 11.52 2.6992 23.398 5.4609 35.281 0.35937 1.4375-0.12109 2.9961-1.2031 4.0156zm1.1992-110.04c-2.7617 11.879-4.6211 23.762-5.4609 35.219-0.17969 2.2188-2.0391 3.8984-4.1992 3.8984h-48.961c-2.3398 0-4.1992-1.9219-4.1992-4.1992v-19.559c0-1.8594 1.1992-3.4805 3-4.0195l54.539-16.32c0.42188-0.12109 0.78125-0.17969 1.1992-0.17969 1.0781 0 2.1016 0.42188 2.8789 1.1406 1.0859 1.0195 1.5664 2.5781 1.2031 4.0195zm72.84 185.58h-0.17969c-1.1992-0.058593-2.2812-0.60156-3.0586-1.5-15.238-17.941-27.059-38.219-35.281-60.121-8.5195-22.68-12.781-46.621-12.781-70.98 0-24.18 4.2617-47.879 12.602-70.441 8.0391-21.719 19.738-41.879 34.68-59.82 0.78125-0.89844 1.8594-1.4414 3.0586-1.5h0.17969c0.83984 0 1.5586 0.23828 2.2812 0.66016l8.9414 8.9414c4.9219 4.9219 13.262 4.5586 18.66-0.83984 5.3984-5.3984 5.8203-13.738 0.89844-18.602l-3.1797-3.1797 0.058593-0.12109-5.1016-5.0391c-0.83984-0.83984-1.3203-1.9805-1.2617-3.1797 0.058594-1.1992 0.60156-2.2812 1.5-3.0586 17.879-14.879 37.98-26.52 59.699-34.559 22.5-8.3398 46.141-12.539 70.32-12.539h0.23828c23.941 0 47.398 4.1406 69.719 12.359 21.539 7.9219 41.52 19.379 59.34 34.078 0.89844 0.78125 1.5 1.8594 1.5 3.0586 0.058594 1.1992-0.42188 2.3398-1.2617 3.1797l-40.32 40.32c-0.78125 0.78125-1.8594 1.2617-3 1.2617-0.66016 0-1.6211-0.17969-2.5781-0.83984-11.82-9-24.84-16.02-38.762-20.82-14.461-4.9805-29.578-7.5-44.941-7.5-15.48 0-30.719 2.5781-45.238 7.6211-14.039 4.8594-27.121 12-39 21.18-0.96094 0.71875-1.9219 0.89844-2.5781 0.89844-0.96094 0-1.8594-0.30078-2.5781-0.89844l-2.1016-2.1016c-4.9219-4.9219-13.262-4.5-18.602 0.89844-5.3984 5.3984-5.8203 13.738-0.89844 18.602l2.2812 2.2812-0.12109 0.12109c0.96094 1.5 0.89844 3.4219-0.23828 4.8594-9.3008 11.941-16.5 25.141-21.48 39.238-5.1602 14.641-7.7383 29.941-7.7383 45.602 0 15.781 2.6406 31.262 7.9219 46.02 5.0391 14.219 12.422 27.539 21.84 39.539 1.3203 1.6797 1.1992 4.0781-0.30078 5.5781l-40.141 40.262c-0.77344 0.66016-1.8555 1.082-2.9961 1.082zm138.24-203.7c0.17969 2.0391-1.1406 4.0195-3.1797 4.5-6.1797 1.5586-12.059 4.0195-17.461 7.1992-0.66016 0.35938-1.3789 0.60156-2.1602 0.60156-1.1406 0-2.1602-0.42188-3-1.1992l-24.359-24.121c-0.89844-0.89844-1.3203-2.1016-1.2617-3.3594 0.12109-1.2617 0.78125-2.3984 1.8008-3.1211 13.621-9.4805 28.621-15.66 44.578-18.359 0.23828-0.058593 0.48047-0.058593 0.71875-0.058593 1.0195 0 1.9805 0.35938 2.6992 1.0195 0.96094 0.78125 1.5 1.9805 1.5 3.2383v32.941c0.125 0.17969 0.125 0.48047 0.125 0.71875zm-45.539 30.363c1.3789 1.3789 1.6211 3.5391 0.60156 5.2188-3.5391 5.8203-6.1797 12-7.8008 18.48-0.48047 1.8594-2.1602 3.1797-4.0781 3.1797h-34.199c-1.2617 0-2.3984-0.53906-3.2383-1.5-0.78125-0.96094-1.1406-2.2188-0.96094-3.4219 2.8203-16.441 9.2383-31.738 19.02-45.48 0.71875-1.0195 1.8594-1.6797 3.0586-1.7383h0.35938c1.1406 0 2.1602 0.42188 3 1.1992zm-48.723 56.039c0.78125-0.96094 1.9805-1.5 3.2383-1.5h34.199c1.9219 0 3.6016 1.3203 4.0781 3.1797 1.7383 6.6602 4.4414 13.078 8.1602 19.141 1.0195 1.6797 0.78125 3.7812-0.60156 5.1602l-24.121 24.121c-0.78125 0.78125-1.8594 1.2617-3 1.2617h-0.35938c-1.2617-0.12109-2.3398-0.71875-3.0586-1.7383-9.9609-13.801-16.5-29.34-19.441-46.141-0.23047-1.2656 0.12891-2.5234 0.90625-3.4844zm44.883 69.359 24.238-24.238c0.78125-0.78125 1.8594-1.2617 3-1.2617 0.71875 0 1.4414 0.17969 2.1016 0.53906 5.2812 3.0586 10.98 5.3398 16.922 6.8398 1.8594 0.48047 3.1797 2.1602 3.1797 4.0781v34.199c0 1.2617-0.53906 2.3984-1.5 3.2383-0.78125 0.66016-1.7383 1.0195-2.6992 1.0195-0.23828 0-0.48047 0-0.71875-0.058594-15.898-2.6992-30.66-8.7617-43.922-17.941-1.0195-0.71875-1.6797-1.8594-1.8008-3.1211-0.12109-1.1914 0.29687-2.4531 1.1992-3.293zm22.199-84.66c0-22.621 18.422-41.039 41.039-41.039 22.621 0 41.039 18.422 41.039 41.039 0 22.621-18.422 41.039-41.039 41.039-22.621 0-41.039-18.418-41.039-41.039zm54.84-70.68v-34.199c0-1.2617 0.53906-2.3984 1.5-3.2383 0.78125-0.66016 1.7383-1.0195 2.6992-1.0195 0.23828 0 0.48047 0 0.71875 0.058594 15.961 2.6992 30.781 8.8203 44.102 18.059 1.0195 0.71875 1.6797 1.8594 1.8008 3.1211 0.12109 1.2617-0.35938 2.4609-1.1992 3.3594l-24.238 24.238c-0.78125 0.78125-1.8594 1.2617-3 1.2617-0.71875 0-1.5-0.17969-2.1016-0.60156-5.2188-3.0586-10.98-5.3984-17.102-6.9609-1.8594-0.47656-3.1797-2.1602-3.1797-4.0781zm0 141.36c0-1.9219 1.3203-3.6016 3.1797-4.0781 5.6992-1.4414 11.281-3.6602 16.559-6.6602 0.60156-0.35938 1.3203-0.53906 2.0391-0.53906 1.1406 0 2.2188 0.42188 3 1.2617l24.301 24.301c0.89844 0.89844 1.3203 2.1016 1.1992 3.3594-0.12109 1.2617-0.78125 2.3984-1.8008 3.1211-13.199 9-27.84 14.941-43.559 17.699-0.23828 0.058594-0.48047 0.058594-0.71875 0.058594-1.0195 0-1.9805-0.35938-2.6992-1.0195-0.96094-0.78125-1.5-1.9805-1.5-3.2383zm44.941-29.039c-1.3789-1.3789-1.6211-3.5391-0.60156-5.2188 3.7812-5.9414 6.6016-12.48 8.3398-19.379 0.48047-1.8594 2.1602-3.1797 4.0781-3.1797h34.199c1.2617 0 2.3984 0.53906 3.2383 1.5 0.78125 0.96094 1.1406 2.2188 0.96094 3.4219-2.8789 16.922-9.5391 32.578-19.738 46.5-0.71875 1.0195-1.8594 1.6211-3.0586 1.7383h-0.30078c-1.1406 0-2.2188-0.48047-3-1.2617zm49.316-56.941c-0.78125 0.96094-1.9805 1.5-3.2383 1.5h-34.199c-1.9219 0-3.6016-1.3203-4.0781-3.1797-1.6797-6.5391-4.3789-12.898-8.0391-18.898-1.0195-1.6797-0.78125-3.8398 0.60156-5.2188l24.121-24.121c0.78125-0.78125 1.8594-1.2617 3-1.2617h0.35938c1.2617 0.12109 2.3398 0.71875 3.0586 1.7383 9.8984 13.621 16.559 29.52 19.379 45.961 0.17578 1.2617-0.18359 2.5195-0.96484 3.4805zm82.562 86.52c-7.7383 20.699-18.781 39.898-32.82 57.121-0.83984 1.0781-1.7383 2.1016-2.6406 3.1797-0.60156 0.71875-1.3789 1.1992-2.2812 1.3789l-1.5586 1.4414-2.5781-2.5781c-4.9219-4.9219-13.262-4.5-18.602 0.89844-5.3984 5.3984-5.8203 13.738-0.89844 18.602l1.8594 1.8594-0.78125 0.71875v0.48047c-0.058594 1.1992-0.60156 2.2812-1.5586 3.0586-17.82 14.578-37.738 25.98-59.219 33.84-22.262 8.1016-45.66 12.238-69.539 12.238-23.941 0-47.461-4.1406-69.781-12.359-21.539-7.9219-41.52-19.379-59.398-34.02-0.89844-0.78125-1.5-1.8594-1.5586-3.0586-0.058593-1.1992 0.42188-2.3398 1.2617-3.1797l40.32-40.32c0.78125-0.78125 1.8594-1.2617 3-1.2617 0.66016 0 1.6211 0.12109 2.5781 0.83984 11.762 8.9414 24.84 15.961 38.762 20.762 14.398 4.9805 29.461 7.5 44.82 7.5 30.238 0 59.039-9.6602 83.219-27.898 0.96094-0.71875 1.9219-0.83984 2.5195-0.83984h0.48047l0.60156-0.71875 11.398 11.398c4.9219 4.9219 13.262 4.5586 18.66-0.83984 5.3984-5.3984 5.8203-13.738 0.89844-18.602l-12.781-12.781 4.5-5.1602 0.66016 0.60156c8.6406-11.34 15.422-23.82 20.16-37.199 5.2812-14.82 7.9805-30.359 7.9805-46.262 0-15.719-2.6406-31.199-7.8594-45.961-5.0391-14.219-12.359-27.48-21.719-39.422-1.3203-1.6797-1.1992-4.0781 0.35938-5.5781l40.262-40.262c0.78125-0.78125 1.8594-1.2617 3-1.2617h0.17969c1.1992 0.058593 2.2812 0.60156 3.0586 1.5 15.18 18 27 38.16 35.16 60.059 8.4609 22.68 12.781 46.559 12.781 70.922-0.066406 24.426-4.3867 48.367-12.906 71.164zm97.141-33.598c0 1.8594-1.1992 3.4805-3 4.0195l-54.539 16.32c-0.42188 0.12109-0.78125 0.17969-1.1992 0.17969-1.0781 0-2.1016-0.42188-2.8789-1.1406-1.0781-1.0195-1.5586-2.5781-1.1992-4.0195 2.6992-11.578 4.5-23.461 5.4609-35.34 0.17969-2.1602 2.0391-3.8984 4.1992-3.8984h48.961c2.3398 0 4.1992 1.9219 4.1992 4.1992zm0-55.68c0 2.3398-1.9219 4.1992-4.1992 4.1992h-48.961c-2.1602 0-4.0195-1.6797-4.1992-3.8984-0.96094-11.879-2.7617-23.762-5.4609-35.34-0.35938-1.4414 0.12109-3 1.1992-4.0195 0.78125-0.71875 1.8008-1.1406 2.8789-1.1406 0.42188 0 0.83984 0.058593 1.1992 0.17969l54.539 16.32c1.8008 0.53906 3 2.1602 3 4.0195zm92.758 27.777c0 1.8594-1.1992 3.4805-3 4.0195l-56.699 17.039c-0.42188 0.12109-0.78125 0.17969-1.1992 0.17969-0.89844 0-1.8008-0.30078-2.5195-0.83984-1.0781-0.78125-1.6797-2.0391-1.6797-3.3594v-53.641c0-1.3203 0.66016-2.5781 1.6797-3.3594 0.71875-0.53906 1.6211-0.83984 2.5195-0.83984 0.42188 0 0.83984 0.058593 1.1992 0.17969l56.699 16.98c1.8008 0.53906 3 2.1602 3 4.0195zm49.262 55.082c0.058593 1.5-0.66016 2.9414-1.9219 3.7188-0.66016 0.42188-1.5 0.66016-2.2812 0.66016-0.66016 0-1.3203-0.12109-1.8594-0.42188l-13.141-6.6016c-1.4414-0.71875-2.3398-2.1602-2.3398-3.7812l0.003906-116.82c0-1.6211 0.89844-3.0586 2.3398-3.7812l13.141-6.6016c0.60156-0.30078 1.2617-0.42188 1.8594-0.42188 0.83984 0 1.6211 0.23828 2.2812 0.66016 1.2617 0.83984 1.9805 2.2188 1.9219 3.7188l-2.8203 64.5v0.66016zm67.559 450.96c-0.12109 2.2812-1.9805 4.0195-4.1992 4.0195h-11.82c-2.2812 0-4.1406-1.8008-4.1992-4.0195l-21.66-497.52c-0.058594-1.1406 0.35938-2.2812 1.1406-3.1211s1.9219-1.3203 3.0586-1.3203h55.141c1.1406 0 2.2812 0.48047 3.0586 1.3203 0.78125 0.83984 1.1992 1.9805 1.1406 3.1211zm20.52-530.88c-0.78125 0.83984-1.9219 1.3203-3.0586 1.3203h-55.141c-1.1406 0-2.2812-0.48047-3.0586-1.3203-0.78125-0.83984-1.1992-1.9805-1.1406-3.1211l21.66-497.52c0.12109-2.2812 1.9805-4.0195 4.1992-4.0195h11.82c2.2812 0 4.1406 1.8008 4.1992 4.0195l21.66 497.52c0.058593 1.1406-0.35938 2.2812-1.1406 3.1211zm54.359 89.883c0 2.3398-1.9219 4.1992-4.1992 4.1992h-19.922c-1.1406 0-2.2812-0.48047-3.0586-1.3203-0.78125-0.83984-1.1992-1.9805-1.1406-3.1211l3.2383-74.281v-0.66016l-3.2383-74.281c-0.058594-1.1406 0.35938-2.2812 1.1406-3.1211 0.78125-0.83984 1.9219-1.3203 3.0586-1.3203h19.922c2.3398 0 4.1992 1.9219 4.1992 4.1992z"/>
</svg>
