<?xml version="1.0" encoding="UTF-8"?>
<svg width="1200pt" height="1200pt" version="1.1" viewBox="0 0 1200 1200" xmlns="http://www.w3.org/2000/svg">
 <path d="m1140.8 683.82c-8.3086 11.578-18.258 22.828-29.848 33.668-57.141 53.496-152.94 97.102-274.75 122.17-8.4727 1.7461-17.039 3.4219-25.758 4.9805-6.6797 1.1953-13.441 2.332-20.25 3.4102-0.55078 0.082031-1.0898 0.1875-1.6289 0.26953-0.22266 0.035157-0.44531 0.082032-0.66797 0.11719-38.438 160.3-110.81 275.96-187.9 275.96h-0.011719c-250.82 0-460.96-177.04-512.31-412.7 31.078 29.766 74.719 56.836 130.07 79.898 107 44.59 247.32 70.16 384.97 70.16 67.078 0 123.71-3.8789 184.75-13.277l6.8438-28.535 4.5703-19.008c7.5234-1.1836 15-2.5078 22.43-3.9023 8.1562-1.5352 16.23-3.2109 24.246-4.9922 116.61-25.945 218.4-77.625 275.47-133.36 9.7852-9.5625 18.316-19.242 25.324-28.922 13.57-18.773 21.539-37.562 22.98-55.594-13.559-302.34-263.71-544.17-569.33-544.17h-0.011719c-314.3 0-570 255.7-570 570s255.7 570 570 570h0.011719c314.29 0 569.99-255.7 569.99-570 0 29.109-10.207 57.328-29.191 83.824zm-350.39-356.29c3.9844-0.48047 8.0039-0.58594 12.023-0.72656 1.6289-0.054688 3.2578-0.29297 4.875-0.29297 8.7305 0 17.285 0.91016 25.652 2.457 65.66 12.109 118.43 69.723 127.31 143.53 9.4102 78.027-33.492 149.48-99.105 173.56-7.3945 2.707-15.117 4.6992-23.051 6.1406-2.8008 0.51562-5.5547 1.1484-8.4023 1.4883-4.8164 0.57422-9.6797 0.78516-14.508 0.86719-0.79688 0.011719-1.5938 0.14062-2.3789 0.14062-4.9922 0-9.9375-0.28125-14.836-0.79688 8.543-18.738 14.707-45.984 18.398-74.035 1.207-9.2461 2.1445-18.562 2.8242-27.695 6.6797-1.0156 13.008-3.1836 18.797-6.4336 7.1367-4.0078 13.5-9.5039 18.586-16.496 1.3242-1.8164 2.2852-3.8281 3.3984-5.7578 6.832-11.895 9.8789-25.734 8.1797-39.875-1.5703-12.965-6.8203-24.59-14.484-33.844-7.2656-8.7578-16.688-15.348-27.316-18.793-6.3984-2.0742-13.254-2.7852-20.285-2.3672-0.60938-2.1797-1.2305-4.3477-1.8633-6.5195-10.441-35.688-25.23-70.832-42.574-87.98 7.9102-2.707 16.137-4.5625 24.516-5.8359 1.418-0.21094 2.8125-0.5625 4.2422-0.73828zm53.895 192.77c-2.0977 2.8906-4.5469 5.3359-7.1484 7.5586-4.9688 4.2422-10.77 7.1133-17.051 8.6016-1.4648 0.34766-2.8828 0.82812-4.3945 1.0078-0.21094 0.023438-0.42188-0.019531-0.63281 0.003907-23.789 2.4609-44.965-16.258-48.023-41.684-3.1172-25.84 13.641-49.184 37.359-52.043 0.91406-0.10938 1.8164-0.11719 2.7305-0.16406 0.69141-0.042969 1.3945-0.12891 2.0859-0.12891 0.25781 0 0.49219 0.070312 0.75 0.078124 6.832 0.12891 13.266 2.0664 19.055 5.2734 12.691 7.0195 22.09 20.383 24.035 36.621 1.5234 12.613-1.5938 25.004-8.7656 34.875zm-768.71 79.691c0-289.15 235.24-524.39 524.4-524.39h0.011719c73.43 0.003906 137.2 84.305 176.18 215.89-46.477 8.1797-87.621 33.938-116.54 73.699-30.621 42.105-43.945 94.691-37.523 148.07 12.316 102.23 94.195 179.33 190.51 179.44-3.1406 37.324-8.0742 73.652-14.602 108.38-59.566 9.2578-129.88 15.094-195.3 15.094-209.21 0-430.54-73.992-524-159.39-2.0156-18.66-3.1289-37.586-3.1289-56.781z"/>
</svg>
