<?xml version="1.0" encoding="UTF-8"?>
<svg width="1200pt" height="1200pt" version="1.1" viewBox="0 0 1200 1200" xmlns="http://www.w3.org/2000/svg">
 <path d="m918.75 300c20.711 0 37.5 16.789 37.5 37.5v453.22l67.234-67.234c14.645-14.645 38.387-14.645 53.031 0s14.645 38.387 0 53.031l-131.25 131.25c-14.645 14.645-38.387 14.645-53.031 0l-131.25-131.25c-14.645-14.645-14.645-38.387 0-53.031s38.387-14.645 53.031 0l67.234 67.234v-453.22c0-20.711 16.789-37.5 37.5-37.5zm-768.75 75c0-20.711 16.789-37.5 37.5-37.5h450c20.711 0 37.5 16.789 37.5 37.5s-16.789 37.5-37.5 37.5h-450c-20.711 0-37.5-16.789-37.5-37.5zm75 150c0-20.711 16.789-37.5 37.5-37.5h375c20.711 0 37.5 16.789 37.5 37.5s-16.789 37.5-37.5 37.5h-375c-20.711 0-37.5-16.789-37.5-37.5zm75 150c0-20.711 16.789-37.5 37.5-37.5h300c20.711 0 37.5 16.789 37.5 37.5s-16.789 37.5-37.5 37.5h-300c-20.711 0-37.5-16.789-37.5-37.5zm75 150c0-20.711 16.789-37.5 37.5-37.5h225c20.711 0 37.5 16.789 37.5 37.5s-16.789 37.5-37.5 37.5h-225c-20.711 0-37.5-16.789-37.5-37.5z" fill-rule="evenodd"/>
</svg>
