<?xml version="1.0" encoding="UTF-8"?>
<svg width="1200pt" height="1200pt" version="1.1" viewBox="0 0 1200 1200" xmlns="http://www.w3.org/2000/svg">
 <path transform="scale(12)" d="m67.493 24.142c4.2139 0 7.6611 3.4469 7.6611 7.6611v12.668c0 4.2129-3.4469 7.6611-7.6611 7.6611h-25.856c-4.2129 0-7.6611-3.4469-7.6611-7.6611v-12.668c0-4.2129 3.4469-7.6611 7.6611-7.6611z" fill="none" stroke="#000" stroke-miterlimit="10" stroke-width="1.2768"/>
 <path d="m433.31 228.47s-159.6 155.76-15.324 280.89c0 0-12.77-97.031 15.324-116.18 0 0 1.2734 14.051 6.3828 11.496 5.1133-2.5547 53.629-97.031 77.879-100.87 24.266-3.8281 11.496-3.8281 16.609 20.438 5.1133 24.266 5.1016 47.242 20.426 52.344 15.336 5.1133 21.719-25.535 21.719-33.191 0 0 33.18 91.934 35.746-3.8281 0 0 33.191 60 48.504 51.07 15.336-8.9414 0-29.363 0-29.363s66.406 29.375 81.742 28.094c0 0-12.742-15.312 0-31.922 12.742-16.598 11.508 2.543 31.922 11.496 20.41 8.9414 63.84 17.867 63.84 17.867s24.238 19.164 29.34 2.5547l5.125-16.598s12.742 57.445 29.352 67.668 12.77-19.152 12.77-19.152-5.1602 47.258-21.742 44.699c-16.645-2.5547 16.598 45.961 28.094 12.758s11.496-88.094 11.496-88.094 15.324-52.344-7.668-76.609c0 0 0-125.12-210.71-128.95-40.691-9.5898-91.691-25.043-81.719 11.496 0 0-20.41-17.172-39.574-20.074-19.152-2.9141-15.324 2.1953-11.496 8.5781 3.9062 6.3555-91.855-12.785-148.04 43.387z"/>
 <path d="m563.54 474.25c0 23.617-19.148 42.766-42.766 42.766-23.621 0-42.77-19.148-42.77-42.766 0-23.621 19.148-42.77 42.77-42.77 23.617 0 42.766 19.148 42.766 42.77"/>
 <path d="m834.24 474.25c0 23.617-19.145 42.766-42.766 42.766s-42.77-19.148-42.77-42.766c0-23.621 19.148-42.77 42.77-42.77s42.766 19.148 42.766 42.77"/>
 <path transform="scale(12)" d="m33.237 36.596s-5.4281 2.9788 0.74414 7.3421v-7.3421z" fill="none" stroke="#000" stroke-miterlimit="10" stroke-width="1.2768"/>
 <path transform="scale(12)" d="m75.902 36.596s5.4281 2.9788-0.74414 7.3421v-7.3421z" fill="none" stroke="#000" stroke-miterlimit="10" stroke-width="1.2768"/>
 <path d="m457.57 411.06s63.215-37.02 117.48 7.6562v9.5742c-0.011719 0.003907-95.137-25.531-117.48-17.23z"/>
 <path transform="scale(12)" d="m48.801 40.779c0 3.5501-2.873 6.4102-6.4102 6.4102-3.5371 0-6.4102-2.86-6.4102-6.4102 0-3.5371 2.873-6.4089 6.4102-6.4089 3.5371 0 6.4102 2.8717 6.4102 6.4089z" fill="none" stroke="#000" stroke-miterlimit="10" stroke-width="1.2768"/>
 <path transform="scale(12)" d="m72.372 40.779c0 3.5501-2.874 6.4102-6.4111 6.4102-3.5492 0-6.4089-2.86-6.4089-6.4102 0-3.5371 2.86-6.4089 6.4089-6.4089 3.5371 0 6.4111 2.8717 6.4111 6.4089z" fill="none" stroke="#000" stroke-miterlimit="10" stroke-width="1.2768"/>
 <path transform="scale(12)" d="m32.506 40.783h3.4772" fill="none" stroke="#000" stroke-miterlimit="10" stroke-width="1.2768"/>
 <path transform="scale(12)" d="m48.783 40.266s6.1191-2.3691 10.783 0" fill="none" stroke="#000" stroke-miterlimit="10" stroke-width="1.2768"/>
 <path d="m843.19 411.06s-63.215-37.02-117.47 7.6562v9.5742c0 0.003907 95.102-25.531 117.47-17.23z"/>
 <path d="m606.6 770.23c-2.1484 6.4219-4.2969 14.258-6.1328 22.801 0 0.32422-0.16797 0.63672-0.16797 0.92578-11.953 57.289-14.855 150.46-14.855 150.46s-19.309-0.44531-35.699-3.5156c-7.5117-1.3672-14.398-3.2148-18.695-5.9648-13.488-8.5938 14.258-115.85 19.008-130.25 4.8945-14.41 8.7227-92.855 8.7227-92.855s-61.586 107.26-88.402 68.242c-2.7461-3.9844-5.0508-7.5234-6.8867-10.754 2.293 0.44531 4.7383 0.64844 7.1992 0.64844 19.465 0 35.398-14.594 35.398-32.34 0-9.7578-4.7539-18.539-12.266-24.191l4.5977-4.7656s37.691-83.016 51.012-83.016h72.48c0.011719-0.070312 1.9883 94.766-15.312 144.57z"/>
 <path transform="scale(12)" d="m42.174 61.464c0 1.4811-1.3281 2.695-2.9499 2.695-0.20508 0-0.40885-0.014974-0.59994-0.052083-1.3411-0.25586-2.362-1.3398-2.362-2.6462 0-1.1462 0.80404-2.1462 1.9411-2.502-0.12793-0.2181-0.20508-0.4821-0.20508-0.7679 0-0.76693 0.57487-1.3809 1.265-1.3809 0.70215 0 1.264 0.61393 1.264 1.3809 0 0.28092-0.077149 0.55013-0.21712 0.77604 0.30599 0.11491 0.59994 0.27116 0.84212 0.47591 0.62565 0.47624 1.0218 1.2035 1.0218 2.0212z" fill="none" stroke="#000" stroke-miterlimit="10" stroke-width="1.8111"/>
 <path d="m817.59 767.29c-6.2656-14.855-39.805 0.61328-51.168 6.2539-2.293 1.2461-3.6953 1.9805-3.6953 1.9805 1.8008-12.742-19.188-79.777-27.59-75.996-8.4102 3.8281 0.74219 20.531 0 44.746-0.74219 24.227 32.039 93.191 32.039 93.191s13.477 49.199 11.484 60.059c-1.8242 10.871 3.2266 33.863 0 30.672-3.2539-3.2539-3.8164-1.8477-15.938 1.9688-11.242 3.5391 19.453 18.383-14.41 4.2852v-0.16797c-2.7461-1.2461-6.1211-2.6055-9.7812-4.1523-21.457-9.2266-33.254-68.219-39.828-131.93 0-0.63672-0.17969-1.3555-0.17969-1.9922-8.4102-81.781-7.9453-170.7-7.9453-170.7h64.488c26.82 18.527 14.723 28.031 33.863 52.391 13.633 17.281 26.207 64.234 29.566 83.328 1.3945 8.0547 1.2383 11.27-0.90625 6.0625z"/>
 <path transform="scale(12)" d="m58.557 52.132c-0.31803 0.50912-0.58789 0.99414-0.58789 1.1751 0 0.42188-3.3962 2.6038-3.3962 2.6038-0.80404 0.21712-3.2939-2.6038-3.2939-2.6038l-0.18001-1.1751z" fill="none" stroke="#000" stroke-miterlimit="10" stroke-width="1.2768"/>
 <path d="m657.62 642.25 10.262 19.922s-6.6016 7.9688-13.02 8.7461c-6.4336 0.76953-15.781-7.957-15.781-7.957l11.965-19.633c-6.8867-4.1289-15.324-17.746-15.324-17.746s36.312-7.0547 35.09 0c-0.95312 5.0508-8.8945 12.852-13.191 16.668z"/>
 <path d="m598.09 776.12s1.7266-1.0938 4.6445-2.1016c2.9297-1.043 7.0312-2.0391 11.914-2.3984 2.4258-0.10938 5.0625-0.25391 7.8008 0.25391 2.7461 0.48047 5.5938 1.8359 8.5664 3.0977 5.9414 2.7344 12.469 2.7109 18.949 0.48047 3.2539-0.98438 6.4453-2.1602 9.5898-2.543 3.1211-0.48047 6.1914-0.9375 9.1445-1.3906 5.8555-0.97266 11.281-0.49219 15.898-0.16797 4.5586 0.44531 8.3633 0.81641 11.051 1.0938 2.6289 0.26562 4.1289-0.28906 4.2461-0.28906l1.2461 0.83984s-0.15625 0.51562-0.39453 1.4883c-0.33594 0.91016-1.2461 2.2188-2.4375 3.4805-2.5078 2.6406-6.7188 5.1016-11.734 6.9102-5.0391 1.7266-10.969 3.0586-17.258 2.5547-3.1445-0.19141-6.3477-0.52734-9.6367-0.97266-3.2539-0.35938-6.5742-1.5469-9.8047-2.6406-6.5273-2.3984-12.949-2.8672-19.211-0.74219-3.1328 0.98438-6.1562 2.0898-8.9531 2.2578-2.8086 0.20312-5.4844-0.26563-7.9219-0.74219-4.8125-1.0078-8.7969-2.6289-11.531-4.1289-2.7461-1.4648-4.2617-2.8438-4.2617-2.8438z"/>
 <path transform="scale(12)" d="m62.359 77.859v1.5189s-0.86686 0.44694-2.1038-0.22884c-0.80501-0.44303-2.3229-0.051107-3.2712 0.28092-0.49805 0.16602-0.84212 0.31803-0.84212 0.31803v-0.038086c-0.039062-0.4349-0.31999-4.3281-0.24414-4.431 0.075847-0.12695-0.35514-2.9242-0.63704-4.6742-0.28288-1.766-0.3571-1.8011-1.4339-1.1621-1.0869 0.63997-1.3659 8.861-1.2731 9.4759 0.051107 0.44596 0.07194 1.3779-0.22103 1.597-0.111 0.11393-0.27702 0.089844-0.51107-0.12695-0.79199-0.7679-6.1038 0-6.1038 0-0.24284-0.20508-0.075846-1.2161 0.088868-1.9788 1.3659 0.25586 2.9749 0.29297 2.9749 0.29297s0.24186-7.764 1.238-12.538c0-0.024089 0.013998-0.050131 0.013998-0.077149l0.54785 0.077149c1.3962 0.17904 5.1211 0.58789 6.96 0.35612l0.66211-0.16602c0 0.05306 0.017903 0.11491 0.017903 0.16602 0.54915 5.3118 1.528 10.229 3.3161 10.992 0.31445 0.13021 0.59342 0.24447 0.82161 0.34635z" fill="none" stroke="#000" stroke-miterlimit="10" stroke-width="1.1765"/>
 <path transform="scale(12)" d="m52.391 83.465c-0.31999-0.052084-0.2181-0.95801-1.291 0.68815-1.0739 1.6602-2.2712 1.277-5.874 0.80892-3.5879-0.4821 0.49805-4.5661 0.49805-4.5661s5.3118-0.77116 6.1038 0c0.23014 0.21712 0.39616 0.23796 0.51107 0.12695l0.052084 0.071941c0-0.003581 0.31706 2.9212 0 2.8701z" stroke="#000" stroke-miterlimit="10" stroke-width="1.2768"/>
 <path transform="scale(12)" d="m66.18 83.413c-1.443 2.6549-7.5091-0.25488-7.6621-0.10286-0.13997 0.16602-0.18815 0.11003-1.1989 0-0.98014-0.10384-0.68815-2.9788-0.68815-2.9788s0.061849-0.15006 0.22884-0.56185c0.039062-0.10384 0.075846-0.21712 0.12891-0.347 0.94499-0.33203 2.4671-0.72884 3.2712-0.27995 1.237 0.68001 2.1038 0.22884 2.1038 0.22884v-0.45898c0.10384 0.11198 0.20508 0.22884 0.30892 0.35384 0.18197 0.20312 0.35514 0.42188 0.52116 0.64095 0.73828 0.96484 4.4274 0.85091 2.9863 3.5059z" stroke="#000" stroke-miterlimit="10" stroke-width="1.2349"/>
 <path transform="scale(12)" d="m67.891 63.562c0 1.6191-0.97396 2.9242-2.179 2.9242-1.194 0-2.165-1.305-2.165-2.9242 0-0.16602 0.012044-0.33203 0.033854-0.48503 0.86719-0.47298 4.3102-0.062826 4.3102 0.48503z" fill="none" stroke="#000" stroke-miterlimit="10" stroke-width="1.2768"/>
 <path transform="scale(12)" d="m36.859 59.854-14.875-16.769s-0.7181-1.7031 1.4368-0.63802l14.783 16.515z" stroke="#000" stroke-miterlimit="10" stroke-width="1.2768"/>
 <path transform="scale(12)" d="m40.62 63.82 2.2721 1.596s1.4648 0.67611 1.4359-1.0352l-2.304-2.111z" stroke="#000" stroke-miterlimit="10" stroke-width="1.2768"/>
 <path transform="scale(12)" d="m72.372 40.783h3.4779" fill="none" stroke="#000" stroke-miterlimit="10" stroke-width="1.2768"/>
 <path d="m624.02 566.26s5.0391 2.1484 11.543 4.5117c1.6094 0.52734 3.3477 1.0938 5.1953 1.7031 1.7539 0.68359 3.7422 0.82812 5.5547 1.5117 3.8164 0.53906 7.6914 1.5 11.508 1.1406 3.8398 0.23828 7.6797-0.69531 11.484-1.2969 1.8008-0.69531 3.7422-1.1172 5.5547-1.5586 1.7773-0.625 3.4922-1.3203 5.2188-1.8359 3.4062-0.98438 6.1562-2.4375 8.2578-3.0859 2.1953-0.74219 3.5156-1.0938 3.5156-1.0938s-0.39453 1.2461-1.4141 3.3359c-1.1641 1.9805-2.4375 5.2305-5.2578 8.0156-2.5312 3.1797-6.2539 6.1562-10.848 8.7734-2.4375 0.97266-4.9453 2.293-7.7539 2.9531-2.7852 0.37109-5.7227 1.2344-8.6289 1.1055-2.9414-0.058594-5.832-0.35938-8.6523-1.0547-2.8203-0.38281-5.2578-1.8945-7.7539-2.8086-4.6562-2.5078-8.4609-5.5195-11.039-8.6641-5.4023-6.0977-6.4844-11.652-6.4844-11.652z"/>
 <path d="m638.94 336c-0.23828 8.9023-1.4023 17.531-2.7617 26.125-1.4648 8.5547-3.2031 17.039-5.3281 25.414l-2.9883-6.7422c7.1289 3.3242 14.051 7.0312 20.977 10.754l5.0039 2.6875-2.3633 4.7539c-6.9258 13.895-14.531 27.492-24.215 40.152 2.9766-15.66 8.0273-30.395 13.754-44.82l2.6406 7.4414c-7.0938-3.3945-14.184-6.7812-21.07-10.57l-4.2734-2.3398 1.2852-4.3906c2.4375-8.293 5.2812-16.477 8.3867-24.59 3.2109-8.082 6.6094-16.109 10.953-23.875z"/>
</svg>
